<?xml version="1.0" standalone="no"?>
<!DOCTYPE svg PUBLIC "-//W3C//DTD SVG 20010904//EN"
 "http://www.w3.org/TR/2001/REC-SVG-20010904/DTD/svg10.dtd">
<svg version="1.0" xmlns="http://www.w3.org/2000/svg"
 width="512.000000pt" height="512.000000pt" viewBox="0 0 512.000000 512.000000"
 preserveAspectRatio="xMidYMid meet">
<metadata>
Created by potrace 1.14, written by Peter Selinger 2001-2017
</metadata>
<g transform="translate(0.000000,512.000000) scale(0.100000,-0.100000)"
fill="#000000" stroke="none">
<path d="M0 2560 l0 -2560 1798 0 c1565 1 1800 3 1816 15 25 19 63 19 97 1 19
-10 84 -14 257 -15 217 -1 231 0 224 16 -92 206 -175 345 -248 413 -38 36 -42
38 -20 11 32 -40 29 -48 -14 -26 -17 9 -35 15 -39 13 -3 -2 17 -15 46 -29 28
-14 49 -21 46 -16 -3 6 -1 7 6 3 6 -4 9 -11 7 -15 -3 -4 8 -21 25 -37 17 -16
35 -38 40 -49 10 -20 10 -20 -5 -1 -9 11 -16 17 -16 13 0 -4 -10 -3 -21 4 -15
8 -18 13 -10 18 8 5 1 16 -21 33 -54 40 -66 43 -23 4 40 -35 41 -46 4 -26 -37
20 -18 2 24 -23 23 -14 51 -36 62 -48 l20 -24 -21 18 c-11 9 -24 14 -27 10 -4
-3 -7 -1 -7 6 0 7 -5 9 -11 6 -6 -4 4 -17 25 -32 20 -13 34 -28 31 -34 -4 -5
-1 -8 7 -7 7 2 12 -4 10 -12 -2 -8 0 -12 4 -8 10 11 34 -11 34 -30 0 -9 10
-27 22 -41 l23 -26 -30 26 c-59 49 -69 52 -26 6 24 -25 47 -44 51 -42 4 2 7
-2 7 -10 0 -18 -9 -19 -27 -3 -8 7 -6 3 4 -9 10 -13 22 -20 27 -18 4 3 11 0
15 -6 4 -8 3 -9 -4 -5 -7 4 -12 2 -12 -5 0 -6 -18 5 -40 24 -43 39 -98 70
-145 81 -74 18 -144 97 -131 149 4 17 -3 27 -34 46 -41 25 -60 57 -60 96 0 14
-6 25 -13 25 -20 0 -79 69 -71 82 4 6 3 8 -3 5 -6 -4 -16 7 -22 25 -14 40 -14
51 2 42 9 -6 9 -5 0 8 -19 23 -6 28 67 28 75 0 155 -21 192 -49 15 -12 33 -18
45 -15 29 8 97 -56 130 -120 26 -51 105 -287 99 -294 -2 -2 -16 33 -31 77 -19
59 -30 78 -41 74 -8 -3 -14 0 -14 6 0 6 5 11 10 11 6 0 10 5 10 11 0 8 -4 8
-14 0 -12 -10 -18 -7 -30 18 -9 16 -20 32 -25 35 -5 3 4 -19 21 -49 16 -30 34
-53 39 -50 5 4 6 0 4 -7 -3 -8 15 -59 40 -113 73 -158 77 -165 102 -165 27 0
28 8 9 36 -8 11 -30 67 -49 124 -33 98 -51 177 -92 389 -9 47 -23 97 -31 113
-8 15 -12 28 -9 28 4 0 -1 7 -9 16 -9 8 -16 21 -16 27 -1 16 -30 49 -57 64
-17 9 -24 9 -39 -3 -11 -9 -13 -13 -6 -9 16 8 15 -3 -2 -21 -17 -16 -56 -19
-56 -3 0 5 5 7 12 3 7 -5 8 -3 3 6 -6 10 -4 12 9 7 9 -4 14 -3 11 2 -3 5 -1
12 4 16 5 3 8 14 6 25 -2 12 0 18 6 15 5 -4 7 -11 4 -16 -4 -5 1 -9 10 -9 9 0
14 4 11 8 -3 5 1 9 9 9 8 0 12 -4 9 -8 -2 -4 0 -10 6 -14 6 -3 10 4 11 17 1
23 1 23 9 -2 l8 -25 1 24 c1 19 4 21 16 11 8 -6 20 -8 26 -4 8 5 9 3 5 -5 -5
-7 -15 -10 -23 -7 -8 3 -12 2 -8 -3 3 -5 0 -11 -6 -13 -7 -2 -5 -9 5 -17 14
-12 16 -12 10 3 -5 14 -2 17 17 14 14 -2 24 -10 24 -20 0 -9 4 -20 9 -25 5 -5
6 -2 2 7 -4 8 1 4 12 -9 19 -23 20 -23 25 -5 4 16 5 16 6 2 0 -10 5 -18 10
-18 24 0 44 -90 52 -235 12 -211 21 -255 89 -418 31 -74 33 -77 65 -77 30 0
33 3 28 23 -3 12 -7 61 -10 108 -6 99 12 155 53 165 16 4 24 13 24 29 0 43 23
86 58 110 29 20 39 22 51 12 12 -9 13 -9 7 1 -4 6 -2 12 3 12 6 0 11 -5 11
-11 0 -5 4 -8 9 -5 13 8 34 -21 25 -35 -5 -8 -3 -9 6 -4 9 6 10 2 5 -15 -5
-15 -3 -20 3 -16 6 4 10 -2 9 -13 0 -11 -5 -17 -11 -14 -5 4 -7 -1 -2 -12 6
-16 4 -16 -10 -4 -16 13 -16 12 -6 -8 10 -19 9 -24 -10 -37 -19 -14 -21 -19
-10 -36 16 -26 15 -55 -2 -88 -13 -26 -13 -28 7 -29 18 -2 38 -23 43 -45 1 -5
3 -9 4 -10 5 -6 7 -58 2 -53 -3 3 -11 0 -19 -6 -18 -15 -17 -4 1 14 13 13 11
14 -12 14 -15 0 -21 -2 -14 -4 6 -3 12 -9 12 -14 0 -6 -4 -7 -10 -4 -5 3 -10
1 -10 -6 0 -7 -8 -5 -20 6 -22 20 -54 30 -44 14 3 -5 9 -7 13 -4 5 2 16 -4 25
-14 16 -18 37 -19 292 -20 l274 -2 0 2561 -1 2560 -2559 0 -2560 0 0 -2560z
m2047 2524 c-3 -3 -12 -4 -19 -1 -8 3 -5 6 6 6 11 1 17 -2 13 -5z m638 -604
c5 -23 10 -26 35 -22 66 10 114 -60 108 -155 -2 -33 1 -52 7 -49 40 14 53 14
82 -4 52 -31 59 -83 28 -187 -6 -17 -3 -23 8 -23 22 0 47 -39 47 -73 0 -38
-24 -78 -63 -103 -38 -24 -204 -77 -217 -69 -5 3 -12 1 -15 -5 -5 -8 -12 -7
-23 2 -12 10 -16 10 -19 1 -3 -7 -12 -13 -21 -13 -12 0 -13 3 -4 12 14 14 16
32 2 23 -12 -7 8 30 37 72 18 25 20 33 10 42 -10 8 -17 7 -25 -1 -6 -6 -14 -9
-17 -6 -8 8 6 39 15 33 5 -3 12 0 16 6 5 8 3 9 -6 4 -10 -6 -12 -4 -7 8 3 9
-1 21 -11 28 -14 11 -15 11 -5 0 13 -15 6 -44 -8 -35 -5 3 -6 10 -3 16 5 7 2
8 -5 3 -9 -5 -10 -10 -2 -18 18 -18 13 -31 -6 -16 -9 8 -14 9 -10 3 4 -7 0
-18 -9 -25 -14 -11 -14 -8 1 26 10 22 17 48 17 58 0 9 3 15 8 12 5 -3 12 0 16
6 5 8 3 9 -6 4 -10 -6 -12 -4 -7 8 3 9 2 19 -3 22 -5 3 -13 -12 -16 -35 -4
-22 -10 -43 -15 -46 -5 -3 -7 1 -5 8 12 36 16 69 9 65 -4 -3 -8 8 -8 23 0 15
3 26 8 23 4 -2 6 6 4 18 -5 29 -24 36 -30 12 -4 -16 -12 129 -8 150 1 5 -3 6
-9 2 -5 -3 -10 -43 -10 -88 -1 -61 -3 -78 -11 -64 -6 9 -14 15 -20 12 -5 -3
-6 1 -3 9 3 9 1 16 -5 16 -13 0 -14 -5 -1 -51 7 -24 7 -45 1 -60 -8 -19 -10
-20 -10 -6 -1 11 -6 15 -12 11 -8 -4 -9 1 -5 17 3 13 3 18 0 11 -4 -9 -16 1
-35 30 -16 23 -29 39 -29 35 0 -5 10 -23 22 -39 11 -17 23 -42 25 -57 9 -55 8
-76 -4 -74 -7 2 -10 -3 -7 -10 3 -8 -5 -13 -21 -15 -18 -1 -24 2 -19 11 4 6 4
9 -1 5 -4 -4 -15 -2 -24 4 -9 7 -5 0 8 -14 13 -15 29 -24 35 -20 27 16 42 9
37 -20 0 -5 4 -8 10 -8 6 0 8 9 4 20 -4 11 -2 20 4 20 6 0 11 5 11 11 0 8 -5
8 -15 -1 -10 -9 -15 -9 -15 -1 0 6 4 11 10 11 11 0 7 49 -5 71 -6 11 -5 11 5
2 7 -6 14 -22 15 -35 2 -13 8 -35 14 -50 9 -23 8 -26 -5 -21 -14 5 -14 2 1
-27 9 -18 12 -29 6 -26 -6 4 -11 0 -11 -9 0 -9 3 -14 8 -12 4 3 7 -5 7 -18 0
-18 -3 -21 -12 -13 -7 6 -13 16 -13 23 0 7 -7 18 -15 25 -11 9 -15 9 -15 1 0
-6 -14 3 -31 21 l-31 33 21 -31 c11 -17 17 -34 13 -38 -4 -4 0 -6 8 -4 10 2
15 -5 15 -22 -1 -19 -5 -24 -20 -22 -17 2 -18 1 -5 -8 13 -9 12 -10 -5 -7 -11
2 -19 8 -18 13 1 6 -5 11 -12 11 -9 0 -11 -4 -6 -11 4 -6 8 -19 8 -28 0 -15
-3 -15 -29 -2 -17 9 -26 20 -22 27 5 9 4 9 -6 0 -21 -19 -178 35 -165 58 4 5
1 8 -7 7 -7 -2 -21 14 -31 34 -24 49 -15 95 21 111 15 6 28 12 30 13 1 0 -4
14 -13 30 -25 48 -20 117 12 154 24 29 31 32 69 27 43 -4 43 -4 37 24 -10 53
7 120 38 152 25 25 36 29 64 24 31 -5 34 -3 40 22 3 16 33 60 67 99 l60 71 59
-72 c32 -39 61 -83 64 -97z m-2568 -276 c-3 -3 -12 -4 -19 -1 -8 3 -5 6 6 6
11 1 17 -2 13 -5z m-3 -29 c2 -6 -2 -12 -10 -12 -7 0 -15 6 -18 12 -2 6 2 12
10 12 7 0 15 -6 18 -12z m774 -14 c-2 -21 4 -31 14 -25 7 4 2 -7 -11 -25 -13
-18 -26 -29 -30 -25 -3 4 0 9 7 11 6 3 12 9 12 15 0 7 -5 6 -14 -1 -10 -8 -16
-9 -21 -1 -3 5 -1 10 4 10 6 0 11 5 11 11 0 5 -5 7 -12 3 -7 -4 -8 -3 -4 5 6
9 11 9 22 0 16 -13 19 2 4 17 -7 7 -6 11 4 11 8 0 15 -3 14 -6z m-758 -21 c-6
-11 -8 -20 -5 -20 15 0 20 3 18 10 -1 5 5 7 15 5 9 -1 23 3 31 9 12 9 12 8 0
-11 -7 -12 -16 -18 -19 -12 -4 5 -17 -2 -30 -16 -21 -22 -21 -25 -6 -31 10 -4
23 -1 29 6 10 10 8 11 -8 6 -15 -6 -17 -4 -8 5 6 6 20 9 30 5 14 -6 15 -9 4
-16 -8 -4 -15 -20 -16 -35 -1 -29 28 -61 46 -49 8 5 10 3 4 -6 -6 -10 -4 -12
7 -7 17 6 19 -8 5 -30 -9 -15 0 -36 13 -28 4 3 7 -3 5 -12 -1 -10 2 -23 7 -30
6 -8 3 -13 -10 -17 -11 -4 -27 -15 -36 -25 -14 -16 -15 -20 -2 -30 12 -10 14
-9 9 8 -3 13 2 23 16 30 17 10 21 9 21 -4 0 -9 -4 -14 -9 -11 -5 3 -12 -1 -15
-10 -4 -11 -2 -15 8 -11 14 6 16 -16 3 -29 -4 -4 -1 -14 6 -23 6 -8 -3 -5 -21
8 -18 12 -30 26 -27 31 3 5 1 11 -5 15 -7 4 -7 12 0 25 13 24 13 30 -1 30 -5
0 -8 -4 -4 -9 3 -5 0 -13 -6 -17 -7 -4 -10 -3 -6 2 7 13 -19 47 -31 40 -6 -3
-9 9 -7 29 1 19 -2 32 -7 29 -4 -3 -8 6 -8 20 0 14 4 26 10 26 5 0 7 -7 4 -15
-4 -8 -1 -15 6 -15 6 0 8 5 5 10 -3 6 -1 10 4 10 6 0 11 -5 11 -11 0 -6 7 -8
16 -5 12 4 15 2 11 -9 -4 -8 3 -21 16 -30 15 -10 17 -15 7 -16 -11 0 -11 -2
-2 -6 19 -7 14 -23 -5 -16 -10 3 -15 3 -12 -1 4 -4 16 -8 28 -11 18 -3 20 -1
11 14 -5 10 -7 21 -3 24 3 4 -1 9 -10 12 -9 4 -14 16 -12 32 2 20 -1 24 -17
20 -11 -3 -17 -3 -14 0 3 3 0 15 -6 27 -7 11 -11 24 -10 29 1 4 -2 7 -8 7 -14
0 -12 -28 3 -33 6 -2 9 -7 6 -11 -9 -10 -40 4 -33 15 3 5 -2 12 -10 15 -9 3
-16 15 -16 26 0 10 5 16 10 13 6 -3 10 -1 10 5 0 7 -7 10 -15 7 -17 -7 -30 9
-15 18 6 4 8 10 5 15 -3 5 3 13 12 19 10 6 14 11 8 11 -5 0 -3 5 5 10 21 14
22 13 10 -10z m47 14 c-3 -3 -12 -4 -19 -1 -8 3 -5 6 6 6 11 1 17 -2 13 -5z
m648 -34 c-3 -6 0 -13 9 -16 8 -3 14 -14 13 -24 -1 -18 -3 -18 -18 -4 -9 8
-16 23 -14 32 5 23 4 22 11 22 3 0 2 -5 -1 -10z m-10 -60 c10 -11 16 -20 13
-20 -3 0 -13 9 -23 20 -10 11 -16 20 -13 20 3 0 13 -9 23 -20z m-593 -33 c12
-18 15 -26 7 -20 -12 10 -18 10 -27 1 -9 -9 -12 -9 -13 3 0 7 -2 24 -3 36 -3
27 6 22 36 -20z m3809 -14 c13 -16 12 -17 -3 -4 -17 13 -22 21 -14 21 2 0 10
-8 17 -17z m-3750 -40 c13 -16 12 -17 -3 -4 -10 7 -18 15 -18 17 0 8 8 3 21
-13z m3234 -33 c12 -13 17 -33 16 -62 -3 -61 -4 -67 -10 -65 -3 1 -16 -4 -27
-11 -33 -17 -56 -103 -64 -232 l-7 -115 -3 95 c-3 68 -5 80 -7 42 -2 -29 -8
-50 -12 -48 -9 6 4 -97 14 -113 3 -6 2 -11 -3 -11 -12 0 -19 27 -28 101 -3 30
-10 61 -16 69 -6 11 -7 9 -3 -7 4 -15 2 -23 -6 -23 -8 0 -9 -3 0 -13 6 -8 8
-16 6 -19 -9 -9 27 -127 38 -125 5 1 12 -5 14 -13 4 -12 3 -13 -5 -1 -8 11
-11 10 -14 -5 -3 -12 -11 4 -22 41 -23 81 -45 134 -45 112 -1 -10 4 -28 10
-40 9 -20 9 -20 -4 -4 -8 9 -18 41 -22 70 -5 32 -10 43 -12 29 -3 -12 3 -47
12 -78 22 -77 13 -79 -13 -2 -42 131 -38 238 12 290 12 13 27 34 33 48 38 89
126 136 168 90z m-876 -47 c-7 -7 -6 -14 2 -19 8 -5 10 -3 4 7 -5 8 -4 11 1 6
8 -8 9 -20 1 -14 -2 1 -10 -3 -18 -10 -12 -9 -14 -6 -13 20 2 60 3 62 18 41
10 -12 11 -23 5 -31z m1211 35 c0 -4 5 -8 11 -8 5 0 7 5 3 12 -4 7 -3 8 5 4
17 -11 2 -29 -20 -23 -11 3 -19 1 -19 -4 0 -5 -3 -8 -7 -8 -5 1 -23 -4 -41
-11 -25 -9 -31 -15 -22 -24 8 -8 13 -7 19 3 6 9 11 10 15 2 4 -5 -7 -17 -24
-26 -16 -8 -30 -11 -30 -6 0 5 6 11 12 13 8 3 4 9 -10 17 -12 6 -21 8 -20 4 1
-4 -12 -24 -30 -43 -18 -19 -43 -52 -54 -72 -12 -21 -25 -38 -29 -38 -4 0 -12
-12 -18 -27 -16 -39 -73 -142 -65 -118 3 11 7 26 7 33 0 6 5 12 10 12 6 0 7 3
4 7 -4 3 -2 12 4 20 6 7 9 13 6 13 -7 0 10 32 37 72 10 15 22 25 27 22 5 -3 6
1 3 9 -6 16 104 139 117 131 5 -3 12 1 15 10 3 9 12 12 21 9 11 -4 14 -2 9 5
-5 8 -1 10 10 5 10 -4 15 -2 11 3 -3 6 5 10 19 10 13 0 24 -4 24 -8z m-1166
-7 c3 -5 -1 -14 -8 -20 -12 -10 -14 -9 -11 6 2 10 4 19 4 21 2 5 10 2 15 -7z
m1297 -8 c12 -14 12 -16 0 -8 -11 6 -13 4 -8 -9 4 -11 3 -15 -4 -11 -6 4 -9 1
-7 -6 1 -8 -2 -15 -7 -16 -6 -2 -10 0 -10 5 0 4 -4 13 -9 21 -7 10 -6 12 4 6
10 -6 12 -4 7 8 -4 12 -2 14 10 10 11 -4 14 -2 9 5 -11 18 0 14 15 -5z m-104
-29 c6 -6 24 -9 40 -6 25 5 27 4 14 -12 -8 -9 -11 -19 -7 -23 3 -3 6 -1 6 7 0
9 3 10 13 1 15 -12 16 -46 2 -58 -4 -5 -5 -2 -1 5 4 7 1 12 -9 12 -10 0 -13
-5 -9 -12 4 -7 3 -8 -5 -4 -6 4 -9 11 -6 16 3 5 -4 11 -15 15 -11 4 -19 13
-18 20 2 8 -1 13 -7 12 -5 -1 -9 -6 -7 -12 1 -5 -4 -2 -11 8 -16 19 -33 22
-42 6 -4 -6 -1 -9 7 -7 8 2 33 -19 56 -45 41 -48 52 -64 32 -52 -5 3 -10 2
-10 -4 0 -5 6 -12 13 -14 7 -4 6 -6 -5 -6 -14 -1 -15 -6 -8 -31 5 -17 5 -28 1
-26 -4 3 -14 -6 -21 -19 -7 -14 -17 -25 -22 -25 -5 0 -7 3 -5 8 3 4 -2 13 -10
21 -13 12 -14 11 -8 -8 4 -12 2 -21 -4 -21 -6 0 -11 8 -12 18 0 15 -1 14 -8
-3 -8 -19 -8 -19 -19 0 -11 20 -11 20 -12 0 0 -14 -7 -21 -22 -22 -11 -1 -25
-8 -29 -15 -4 -7 -11 -10 -14 -6 -4 4 -20 -6 -37 -20 -27 -24 -88 -39 -88 -21
0 10 26 29 34 24 3 -3 2 0 -4 7 -6 8 -4 16 8 25 9 8 11 12 4 8 -17 -9 -28 25
-11 37 12 8 11 9 -1 5 -9 -2 -15 -16 -16 -33 0 -16 -15 -57 -32 -90 -34 -65
-43 -102 -17 -68 14 18 15 17 4 -8 -7 -15 -17 -25 -22 -21 -7 4 -8 -1 -3 -13
5 -13 4 -16 -4 -8 -13 13 16 109 50 167 12 20 17 37 12 37 -7 0 -6 11 1 30 6
17 15 30 20 30 4 0 5 6 1 13 -4 6 2 3 14 -7 20 -18 26 -17 20 2 -2 4 -6 6 -10
5 -15 -5 -8 14 12 32 11 10 18 21 15 25 -8 13 30 7 40 -7 9 -12 11 -11 11 6 0
11 -4 17 -8 15 -4 -3 -8 0 -8 6 0 7 -7 9 -16 6 -14 -6 -15 -4 -4 9 9 11 15 13
20 4 6 -8 14 -8 31 2 24 13 30 15 50 18 5 0 7 6 4 11 -3 6 -4 10 0 10 3 0 14
-14 24 -31 18 -29 18 -75 0 -64 -4 3 -6 13 -3 23 5 14 4 14 -4 3 -6 -8 -8 -20
-5 -28 3 -7 0 -13 -6 -13 -6 0 -11 6 -12 13 0 9 -2 9 -5 0 -3 -7 -11 -11 -17
-9 -7 1 -9 1 -4 -1 4 -3 7 -9 7 -14 0 -6 -4 -7 -10 -4 -6 4 -7 -1 -3 -11 4
-10 2 -15 -4 -11 -5 3 -10 0 -10 -7 0 -7 6 -13 13 -13 7 0 11 4 8 9 -5 7 10
12 28 9 4 0 4 7 1 16 -5 13 -2 15 11 10 10 -4 15 -3 11 3 -3 6 1 10 9 10 9 0
16 9 16 20 0 25 20 27 21 3 0 -13 2 -14 6 -4 3 8 -1 19 -9 25 -8 6 -20 22 -28
35 -11 21 -10 23 4 18 9 -4 16 -2 16 3 0 6 -9 10 -20 10 -15 0 -19 6 -17 22 5
32 48 45 74 22z m928 -35 c0 -5 5 -9 10 -8 6 1 9 5 7 11 -1 5 3 6 9 3 8 -5 8
-10 0 -18 -16 -16 -13 -31 3 -18 11 9 19 6 36 -20 22 -30 22 -30 2 -18 -11 7
-19 16 -16 20 2 5 -5 6 -16 4 -13 -2 -23 2 -27 12 -6 15 -7 15 -13 -1 -5 -17
-7 -17 -20 -1 -11 14 -11 16 1 13 9 -2 14 5 13 20 -1 12 1 20 5 17 3 -4 6 -11
6 -16z m-2314 -26 c2 1 -2 -3 -9 -10 -8 -6 -11 -18 -7 -25 4 -7 0 -5 -10 4
-14 13 -16 20 -7 31 7 8 11 16 9 18 -1 2 3 -1 9 -8 6 -7 13 -12 15 -10z m1230
-6 c-10 -9 -11 -8 -5 6 3 10 9 15 12 12 3 -3 0 -11 -7 -18z m-1522 -1 c6 -4 9
-12 6 -17 -4 -5 1 -9 9 -9 9 0 16 -2 16 -4 0 -2 3 -12 7 -22 5 -13 3 -16 -10
-11 -9 3 -17 2 -17 -4 0 -6 -5 -7 -12 -3 -7 5 -5 12 8 22 18 14 18 14 1 8 -10
-3 -23 -6 -28 -6 -6 0 -7 -5 -3 -11 10 -17 -54 23 -74 45 -9 11 -11 16 -4 12
6 -4 12 -3 12 2 0 11 71 9 89 -2z m857 -5 c49 -22 162 -121 139 -121 -9 0 -14
-4 -10 -10 3 -5 13 -7 23 -4 14 5 14 4 2 -4 -16 -12 -44 4 -34 20 7 11 -10 32
-46 58 -21 15 -27 16 -27 5 0 -8 3 -13 6 -11 3 2 17 -8 31 -22 14 -14 18 -21
10 -15 -27 19 -97 34 -121 25 -21 -8 -21 -9 10 -15 18 -4 38 -4 44 0 6 3 7 1
3 -5 -4 -7 -2 -13 3 -13 20 -3 26 -5 56 -24 17 -10 43 -34 60 -54 23 -28 9
-28 -15 0 -23 25 -108 71 -147 78 -51 10 -73 6 -30 -4 14 -4 34 -18 46 -31 19
-21 39 -29 64 -25 5 1 6 -2 3 -7 -2 -4 -26 -5 -53 -2 -35 4 -56 1 -79 -11 -24
-13 -34 -15 -43 -6 -9 9 -11 8 -6 -3 4 -12 -2 -16 -22 -18 -21 -1 -24 0 -13 8
8 5 11 10 6 10 -5 0 -18 -8 -29 -17 -11 -10 -17 -13 -14 -6 4 7 -1 14 -13 18
-11 4 -18 11 -15 16 3 5 0 6 -8 3 -8 -3 -20 3 -28 13 -13 16 -12 17 3 5 14
-11 16 -11 11 7 -6 23 -23 27 -41 9 -7 -7 -12 -8 -12 -2 0 14 16 36 26 36 5 0
18 4 29 9 18 7 17 8 -5 6 -14 -2 -34 -8 -46 -14 -11 -7 -34 -14 -50 -17 -26
-5 -27 -4 -11 9 10 7 18 16 18 19 -3 26 4 37 36 56 27 16 49 21 80 18 24 -2
43 -1 43 3 0 3 9 15 20 27 26 28 88 29 146 3z m-964 -18 c10 -9 18 -23 17 -32
0 -9 -3 -11 -5 -5 -3 7 -13 10 -23 7 -10 -3 -22 0 -25 5 -4 6 2 8 14 5 12 -3
20 0 20 6 0 7 -5 9 -12 5 -7 -5 -8 -3 -3 6 6 10 4 12 -9 7 -10 -4 -15 -3 -11
3 9 14 16 13 37 -7z m2649 -7 c1 5 1 12 0 16 -1 7 19 5 34 -4 6 -3 22 -5 37
-3 16 2 35 -5 47 -16 25 -24 27 -33 5 -25 -15 6 -15 4 -3 -10 13 -16 12 -16
-7 -6 -17 9 -24 9 -33 -2 -6 -7 -7 -17 -3 -21 4 -5 1 -5 -6 -1 -7 4 -10 11 -8
15 3 4 -1 8 -9 8 -8 0 -15 -4 -15 -8 0 -11 -26 -5 -44 10 -13 11 -16 11 -17 0
0 -10 -2 -11 -6 -1 -2 6 -8 10 -12 8 -4 -3 -7 10 -7 29 0 32 1 32 23 18 13 -9
24 -11 24 -7z m-2301 8 c0 -8 -19 -13 -24 -6 -3 5 1 9 9 9 8 0 15 -2 15 -3z
m269 -12 c13 10 13 8 -1 -6 -16 -18 -38 -15 -38 7 0 8 3 8 12 -1 9 -9 15 -9
27 0z m-384 -26 c-2 -12 -4 -25 -4 -30 -1 -5 -8 -3 -16 4 -12 10 -15 9 -16 -6
-1 -16 -2 -16 -6 -2 -2 9 -11 19 -20 22 -12 5 -13 4 -5 -7 9 -10 8 -14 -3 -14
-9 0 -13 10 -12 29 2 27 4 28 44 26 37 -1 42 -4 38 -22z m27 -10 c3 -14 0 -27
-7 -30 -8 -3 -11 5 -9 22 3 42 9 44 16 8z m-1612 1 c0 -2 -10 -12 -22 -23
l-23 -19 19 23 c18 21 26 27 26 19z m-460 -13 c0 -8 -19 -13 -24 -6 -3 5 1 9
9 9 8 0 15 -2 15 -3z m1417 0 c-3 -3 -12 -4 -19 -1 -8 3 -5 6 6 6 11 1 17 -2
13 -5z m-1320 -19 c0 -8 -4 -12 -9 -9 -5 3 -6 10 -3 15 9 13 12 11 12 -6z
m-127 0 c0 -1 -10 -10 -22 -21 -14 -12 -18 -13 -10 -3 6 9 10 18 7 21 -3 2 2
5 10 5 8 0 15 -1 15 -2z m60 0 c0 -2 -6 -8 -13 -14 -10 -8 -14 -7 -14 2 0 8 6
14 14 14 7 0 13 -1 13 -2z m470 0 c0 -1 -9 -10 -19 -19 -13 -12 -21 -14 -26
-6 -4 6 -1 9 7 8 7 -2 12 2 11 8 -1 6 5 11 13 11 8 0 14 -1 14 -2z m935 -5 c3
-5 1 -10 -4 -10 -6 0 -11 5 -11 10 0 6 2 10 4 10 3 0 8 -4 11 -10z m-1514 -14
c-9 -11 11 -51 21 -41 2 3 5 -1 5 -9 0 -11 -4 -12 -18 -3 -10 6 -17 13 -17 16
0 4 -1 8 -2 11 -8 21 -6 37 6 37 9 0 10 -4 5 -11z m66 7 c-9 -9 12 -33 30 -33
8 0 12 4 8 9 -3 5 -1 12 5 16 5 3 10 -1 10 -9 0 -9 4 -16 10 -16 5 0 7 8 3 18
-3 9 -4 15 -2 12 44 -53 43 -49 17 -43 -16 3 -19 2 -9 -5 9 -7 10 -12 2 -16
-6 -4 -11 -2 -11 4 0 6 -4 8 -10 5 -6 -4 -7 1 -3 12 4 13 -2 10 -24 -10 -20
-19 -30 -23 -30 -13 0 8 4 13 9 10 4 -3 8 0 8 5 0 6 -5 11 -11 11 -5 0 -8 4
-4 9 3 5 1 12 -5 16 -10 6 -5 25 7 25 4 0 3 -3 0 -7z m150 -7 c-1 -6 5 -10 13
-8 10 1 9 -2 -4 -13 -11 -8 -16 -15 -11 -15 5 0 0 -7 -11 -16 -15 -13 -16 -15
-2 -10 12 3 15 1 11 -10 -9 -24 -32 3 -27 32 3 14 1 23 -5 20 -5 -3 -15 2 -22
12 -13 15 -12 16 4 3 9 -7 17 -10 17 -6 0 4 7 2 15 -5 17 -14 21 0 5 16 -7 7
-6 11 4 11 8 0 14 -5 13 -11z m49 -12 c1 -9 0 -13 -4 -10 -3 4 -7 14 -8 22 -1
9 0 13 4 10 3 -4 7 -14 8 -22z m1236 2 c7 4 8 2 4 -5 -9 -13 -26 -5 -25 12 0
9 2 8 6 -1 2 -6 10 -9 15 -6z m-1526 -18 c5 4 6 3 2 -2 -4 -5 -3 -15 3 -22 7
-9 6 -14 -3 -20 -7 -4 -10 -3 -5 1 4 5 -3 20 -15 34 -13 14 -16 20 -7 13 9 -6
20 -8 25 -4z m319 -33 c1 -19 -1 -32 -4 -29 -3 3 -6 21 -6 39 -1 19 1 32 4 29
3 -3 6 -21 6 -39z m-356 12 c19 -21 20 -26 7 -36 -10 -8 -16 -9 -21 -1 -4 6
-3 10 2 9 23 -4 24 3 3 26 -13 14 -21 25 -18 25 2 0 14 -11 27 -23z m328 -2
c0 -8 -4 -12 -9 -9 -5 3 -6 10 -3 15 9 13 12 11 12 -6z m948 5 c-5 -9 15 -15
38 -11 4 0 7 -4 7 -10 0 -5 5 -7 12 -3 8 5 9 2 5 -9 -4 -11 5 -25 26 -43 18
-14 25 -23 17 -18 -8 4 -5 -4 8 -18 28 -31 29 -47 1 -22 l-21 19 21 -35 c34
-56 24 -60 -13 -5 -18 28 -51 68 -72 90 -34 35 -41 48 -35 70 0 3 4 5 7 5 3 0
2 -4 -1 -10z m3315 6 c0 -2 -8 -10 -17 -17 -16 -13 -17 -12 -4 4 13 16 21 21
21 13z m-4182 -24 c9 7 13 8 9 2 -4 -7 0 -15 9 -18 12 -5 15 -2 10 11 -4 10
-4 14 0 10 4 -4 14 -1 23 6 14 10 14 10 4 -4 -7 -9 -10 -19 -6 -22 3 -4 1 -7
-6 -7 -7 0 -9 -5 -5 -12 6 -10 4 -10 -7 0 -18 17 -34 15 -20 -2 8 -10 9 -16 1
-21 -6 -4 -10 -3 -9 2 3 19 -2 27 -10 15 -6 -10 -10 -10 -21 3 -11 13 -10 15
6 9 18 -5 18 -5 2 9 -10 8 -18 20 -18 28 1 9 4 8 11 -4 9 -15 13 -16 27 -5z
m970 -12 c17 -27 10 -25 -19 6 -13 14 -17 23 -9 19 9 -3 21 -14 28 -25z m3362
26 c0 -2 -8 -10 -17 -17 -16 -13 -17 -12 -4 4 13 16 21 21 21 13z m-4513 -13
c-4 -3 1 -16 10 -27 18 -21 18 -21 -4 -2 -20 16 -23 36 -6 36 4 0 3 -3 0 -7z
m2780 -10 c-4 -3 1 -12 11 -20 15 -13 15 -13 -6 -3 -19 9 -23 30 -5 30 4 0 3
-3 0 -7z m-3037 -8 c0 -2 -6 -8 -13 -14 -10 -8 -14 -7 -14 2 0 8 6 14 14 14 7
0 13 -1 13 -2z m110 -10 c-10 -12 -10 -15 3 -15 9 0 18 -3 20 -7 3 -5 -10 -8
-29 -8 -19 0 -34 5 -34 10 0 6 4 10 10 10 5 0 15 6 22 13 17 17 23 15 8 -3z
m404 -1 c3 -8 2 -12 -4 -9 -6 3 -10 10 -10 16 0 14 7 11 14 -7z m-350 -10 c3
-8 0 -16 -7 -20 -7 -4 -9 -4 -5 1 4 4 0 13 -8 20 -15 11 -15 12 -1 12 9 0 18
-6 21 -13z m1230 0 c5 -14 4 -15 -9 -4 -17 14 -19 20 -6 20 5 0 12 -7 15 -16z
m-1149 -3 c3 -5 2 -12 -3 -15 -5 -3 -9 1 -9 9 0 17 3 19 12 6z m-221 -13 c-5
-7 -2 -9 9 -5 8 3 21 -1 27 -8 7 -8 16 -13 19 -10 4 2 8 -2 8 -10 0 -8 -4 -12
-9 -9 -4 3 -11 -2 -14 -10 -3 -9 -10 -13 -16 -10 -5 3 -1 12 8 18 12 9 14 15
6 20 -7 4 -12 2 -12 -5 0 -8 -7 -5 -20 6 -17 15 -19 35 -4 35 3 0 2 -5 -2 -12z
m1416 -9 c0 -6 -4 -7 -10 -4 -5 3 -10 11 -10 16 0 6 5 7 10 4 6 -3 10 -11 10
-16z m48 -4 c-3 -3 -9 2 -12 12 -6 14 -5 15 5 6 7 -7 10 -15 7 -18z m-1502 -3
c-3 -3 0 -12 6 -21 10 -13 10 -14 -2 -4 -16 15 -23 46 -8 37 5 -3 7 -9 4 -12z
m33 -16 c7 -8 8 -17 3 -20 -6 -3 -12 3 -15 14 -6 24 -4 25 12 6z m1308 -17
c40 -25 75 -69 102 -129 26 -57 27 -88 1 -35 -11 22 -19 36 -20 31 0 -5 -8 -2
-17 6 -32 27 -50 34 -30 11 9 -11 14 -23 10 -28 -5 -4 -3 -6 2 -2 6 3 23 -17
38 -44 27 -46 46 -66 33 -34 -3 8 -1 15 4 15 6 0 10 -5 10 -10 0 -6 9 -24 21
-39 11 -16 23 -50 26 -77 8 -83 8 -164 0 -164 -5 0 -7 24 -6 53 2 58 -18 167
-31 167 -5 0 -4 -15 1 -32 12 -44 22 -118 15 -118 -3 0 -12 24 -21 53 -15 51
-43 107 -31 62 12 -46 25 -114 31 -165 4 -30 9 -70 11 -89 2 -19 1 -32 -2 -28
-4 4 -9 25 -11 48 -7 69 -50 223 -76 275 -14 27 -39 63 -57 79 l-31 30 -21
-27 c-35 -49 -110 -28 -142 39 -20 41 -21 77 -3 67 7 -5 6 0 -3 11 -11 14 -11
17 -1 11 10 -7 12 -3 6 13 -5 18 -2 24 14 28 11 3 18 9 15 15 -3 5 6 7 21 5
15 -2 31 -10 36 -18 6 -10 9 -11 9 -1 0 7 5 10 12 6 7 -4 8 -3 4 5 -4 6 -11 9
-16 6 -5 -3 -11 -1 -15 5 -4 6 -10 8 -15 5 -5 -3 -11 -1 -15 4 -3 6 6 8 21 5
14 -3 23 -1 20 4 -10 17 68 1 101 -19z m1616 10 c-8 -8 -13 -7 -18 2 -5 8 -4
10 3 5 7 -4 12 -2 12 5 0 7 3 9 7 6 4 -4 2 -12 -4 -18z m695 -10 c-6 -4 -16
-5 -20 -3 -13 8 -9 -10 5 -26 10 -12 9 -12 -3 -2 -16 11 -60 13 -60 2 0 -9 23
-30 33 -30 5 0 4 7 -3 15 -9 10 -9 15 -1 15 6 0 11 -3 12 -7 0 -5 2 -16 4 -25
2 -11 -2 -15 -11 -11 -17 6 -18 -1 -4 -27 8 -15 6 -18 -8 -15 -9 2 -20 4 -24
4 -5 1 -7 6 -5 12 1 6 -4 14 -12 17 -9 3 -11 0 -6 -9 5 -8 5 -11 0 -7 -5 5
-16 -5 -25 -20 -23 -38 -53 -40 -37 -3 6 14 14 28 17 31 3 3 18 22 33 43 34
45 96 80 115 64 10 -8 10 -12 0 -18z m-2180 -4 c-3 -3 -9 2 -12 12 -6 14 -5
15 5 6 7 -7 10 -15 7 -18z m1592 15 c13 -9 13 -10 0 -9 -8 0 -24 4 -35 9 l-20
9 20 0 c11 0 27 -4 35 -9z m469 -5 c-2 -12 -30 -56 -46 -73 -7 -7 -13 -20 -13
-27 0 -8 -4 -17 -10 -20 -12 -7 -1 23 30 87 21 42 21 43 1 18 -11 -14 -21 -20
-21 -13 0 6 5 15 10 18 6 4 8 10 6 14 -3 4 6 7 19 7 14 -1 25 -6 24 -11z
m-404 -25 c3 -6 -1 -7 -9 -4 -18 7 -21 14 -7 14 6 0 13 -4 16 -10z m-2420 -9
c3 -5 2 -12 -3 -15 -5 -3 -9 1 -9 9 0 17 3 19 12 6z m785 -26 c0 -5 -5 -3 -10
5 -5 8 -10 20 -10 25 0 6 5 3 10 -5 5 -8 10 -19 10 -25z m1544 17 c3 -5 -1 -9
-9 -9 -8 0 -12 4 -9 9 3 4 7 8 9 8 2 0 6 -4 9 -8z m-2354 -6 c0 -2 -8 -10 -17
-17 -16 -13 -17 -12 -4 4 13 16 21 21 21 13z m800 -40 c0 -12 -5 -7 -19 24
-11 24 -11 24 3 6 9 -11 16 -24 16 -30z m1595 34 c3 -6 -1 -7 -9 -4 -18 7 -21
14 -7 14 6 0 13 -4 16 -10z m-2544 -17 c13 -16 12 -17 -3 -4 -10 7 -18 15 -18
17 0 8 8 3 21 -13z m2866 -5 c-3 -8 -6 -5 -6 6 -1 11 2 17 5 13 3 -3 4 -12 1
-19z m-2687 -2 c0 -2 -8 -10 -17 -17 -16 -13 -17 -12 -4 4 13 16 21 21 21 13z
m787 -28 c-3 -8 -6 -5 -6 6 -1 11 2 17 5 13 3 -3 4 -12 1 -19z m-952 3 c3 -5
2 -12 -3 -15 -5 -3 -9 1 -9 9 0 17 3 19 12 6z m122 -6 c0 -8 -4 -12 -9 -9 -5
3 -6 10 -3 15 9 13 12 11 12 -6z m-100 -12 c-4 -3 -2 -12 4 -19 7 -8 6 -14 -2
-20 -7 -4 -9 -3 -5 4 3 6 2 13 -4 17 -10 6 -5 25 7 25 4 0 3 -3 0 -7z m72 -7
c9 -11 9 -16 -1 -22 -7 -4 -10 -4 -6 1 4 4 3 14 -3 22 -6 7 -9 13 -6 13 2 0
10 -6 16 -14z m56 5 c3 -5 2 -12 -3 -15 -5 -3 -9 1 -9 9 0 17 3 19 12 6z m784
-31 c0 -10 -3 -8 -9 5 -12 27 -12 43 0 25 5 -8 9 -22 9 -30z m2099 -4 c-2 -16
-7 -22 -18 -19 -10 3 -9 -1 4 -11 17 -13 17 -16 4 -16 -9 0 -20 9 -23 20 -4
11 -11 17 -17 14 -6 -4 -8 -2 -5 4 4 5 16 8 27 5 14 -4 20 0 20 11 0 9 -5 16
-11 16 -5 0 -7 -4 -4 -10 4 -6 -1 -7 -11 -3 -11 4 -13 8 -6 11 7 2 9 8 6 14
-4 6 2 5 15 -1 13 -8 20 -20 19 -35z m-3043 14 c10 -11 16 -20 13 -20 -3 0
-13 9 -23 20 -10 11 -16 20 -13 20 3 0 13 -9 23 -20z m969 4 c3 -8 2 -12 -4
-9 -6 3 -10 10 -10 16 0 14 7 11 14 -7z m-798 -13 c-10 -11 -15 -24 -12 -30 4
-5 2 -13 -4 -16 -6 -4 -10 -3 -9 2 3 19 -2 34 -10 28 -5 -3 -12 -1 -16 4 -3 6
3 8 14 6 11 -2 25 3 32 11 6 8 14 14 17 14 3 0 -3 -9 -12 -19z m2741 -3 c-3
-8 -6 -5 -6 6 -1 11 2 17 5 13 3 -3 4 -12 1 -19z m-2932 -8 c10 -11 16 -20 13
-20 -3 0 -13 9 -23 20 -10 11 -16 20 -13 20 3 0 13 -9 23 -20z m96 3 c13 -16
12 -17 -3 -4 -10 7 -18 15 -18 17 0 8 8 3 21 -13z m34 -12 c3 -5 2 -12 -3 -15
-5 -3 -9 1 -9 9 0 17 3 19 12 6z m2684 -19 c0 -14 -2 -13 -9 3 l-9 20 0 -20
c-1 -16 -3 -17 -11 -5 -6 9 -5 17 3 22 15 9 27 0 26 -20z m-2709 3 c0 -2 -6
-8 -13 -14 -10 -8 -14 -7 -14 2 0 8 6 14 14 14 7 0 13 -1 13 -2z m50 -4 c0 -5
-7 -12 -16 -15 -14 -5 -15 -4 -4 9 14 17 20 19 20 6z m2851 -11 c6 0 7 6 3 13
-4 6 2 3 13 -8 26 -26 19 -39 -11 -20 -19 13 -23 13 -23 1 0 -8 6 -12 14 -9 9
4 11 0 6 -13 -5 -13 -3 -15 8 -9 8 5 4 -3 -7 -16 -12 -13 -30 -58 -40 -99 -23
-95 -21 -86 -23 -115 0 -14 -6 -25 -12 -25 -7 0 -9 8 -4 23 3 12 7 29 7 37 0
8 2 22 5 30 4 8 7 22 7 30 1 8 4 20 7 25 9 17 5 38 -10 43 -10 3 -12 0 -8 -11
3 -8 3 -18 -1 -22 -7 -7 -9 -13 -11 -46 -1 -14 -6 -19 -16 -15 -8 3 -15 2 -16
-2 0 -4 -2 -35 -3 -70 -2 -34 -7 -66 -11 -70 -4 -4 -4 38 0 93 3 55 6 107 7
115 0 8 2 22 5 30 3 8 7 21 9 28 1 8 10 22 18 31 9 10 16 24 16 31 0 29 11 0
15 -40 5 -44 25 -83 22 -41 -1 11 -5 21 -10 21 -4 0 -5 5 -2 10 4 6 11 7 17 4
7 -5 8 -2 3 6 -6 10 -3 12 11 7 19 -7 19 -7 0 8 -10 8 -23 12 -27 9 -5 -3 -1
9 9 25 9 17 19 26 20 21 2 -6 8 -10 13 -10z m-2891 -4 c0 -2 -8 -10 -17 -17
-16 -13 -17 -12 -4 4 13 16 21 21 21 13z m-100 -10 c0 -2 -6 -9 -14 -15 -11
-9 -16 -9 -22 0 -4 7 -3 9 4 5 6 -3 13 -2 17 4 6 10 15 14 15 6z m135 -6 c-3
-5 -14 -10 -23 -9 -14 0 -13 2 3 9 27 11 27 11 20 0z m2684 -30 c0 -10 -3 -8
-9 5 -12 27 -12 43 0 25 5 -8 9 -22 9 -30z m-2803 15 c-1 -8 -5 -17 -8 -21 -5
-4 -4 16 1 34 3 9 9 -1 7 -13z m-51 -14 c3 -5 2 -12 -3 -15 -5 -3 -9 1 -9 9 0
17 3 19 12 6z m75 -5 c0 -2 -8 -10 -17 -17 -16 -13 -17 -12 -4 4 13 16 21 21
21 13z m-131 -20 c9 -11 9 -16 -1 -22 -7 -4 -10 -4 -6 1 4 4 3 14 -3 22 -6 7
-9 13 -6 13 2 0 10 -6 16 -14z m171 9 c0 -2 -6 -8 -13 -14 -10 -8 -14 -7 -14
2 0 8 6 14 14 14 7 0 13 -1 13 -2z m-239 -52 c13 -16 12 -17 -3 -4 -10 7 -18
15 -18 17 0 8 8 3 21 -13z m2869 6 c0 -6 4 -8 9 -4 5 3 13 0 17 -6 5 -8 3 -9
-6 -4 -9 5 -11 4 -6 -3 4 -7 15 -12 24 -12 9 0 22 -11 28 -23 8 -18 8 -24 -2
-24 -7 0 -10 5 -7 10 3 6 1 7 -6 3 -9 -6 -9 -11 1 -24 11 -13 11 -14 -8 -4
-12 6 -24 8 -28 5 -3 -3 -6 1 -6 10 0 13 -8 17 -32 16 -18 -1 -25 -3 -15 -6
15 -4 16 -7 6 -19 -10 -12 -9 -16 8 -20 16 -4 19 -13 18 -45 -2 -32 3 -41 24
-54 l26 -16 -22 19 c-20 18 -21 32 -2 32 11 0 27 -30 33 -61 11 -56 16 -93 10
-81 -3 6 -11 12 -17 12 -7 -1 -3 -8 8 -18 19 -16 32 -67 14 -56 -5 3 -9 -2 -9
-11 0 -9 3 -14 8 -12 4 3 5 -18 2 -46 l-4 -52 -7 45 -6 45 -2 -40 c-1 -30 -4
-36 -11 -25 -7 11 -10 7 -12 -20 -1 -19 -4 6 -7 55 -3 50 -2 95 2 102 4 6 3
14 -4 19 -8 5 -9 3 -4 -6 5 -9 4 -11 -3 -6 -7 4 -12 14 -12 22 0 8 -6 17 -14
20 -8 3 -12 12 -9 20 3 8 9 11 14 8 5 -3 9 0 9 5 0 14 -13 14 -26 1 -6 -6 -10
-1 -12 16 -2 24 0 25 16 13 15 -12 16 -12 5 2 -7 9 -11 18 -8 21 3 2 -2 5 -10
5 -8 0 -12 -3 -10 -7 2 -3 -1 -12 -6 -20 -7 -12 -8 -10 -6 6 1 12 11 33 20 48
10 14 13 26 7 26 -5 0 -10 -4 -10 -10 0 -5 -4 -10 -9 -10 -5 0 -8 11 -7 24 0
16 5 21 11 15 15 -15 29 -10 15 6 -7 8 -18 15 -25 15 -7 0 -15 -7 -19 -15 -3
-8 -1 -15 5 -15 6 0 7 -5 4 -10 -4 -6 -10 -8 -15 -5 -11 7 -9 45 3 45 4 0 5 5
1 11 -4 8 1 9 17 4 21 -7 22 -6 10 8 -7 9 -17 15 -21 12 -5 -3 -12 0 -16 6 -4
7 -3 9 3 6 6 -4 17 1 24 10 12 14 12 16 -2 11 -9 -4 -16 -1 -16 6 0 10 7 11
29 2 24 -9 26 -12 11 -18 -16 -6 -15 -7 3 -7 12 -1 25 6 28 15 3 8 2 12 -4 9
-6 -3 -10 -1 -10 4 0 6 -3 10 -7 10 -5 -1 -15 -1 -23 0 -11 1 -12 3 -3 9 18
12 53 12 53 1z m-2057 -50 c18 -7 42 -20 55 -30 12 -10 31 -15 43 -12 38 10
117 -84 151 -182 27 -75 22 -77 -12 -6 -17 35 -33 61 -36 58 -3 -3 -1 -14 5
-25 6 -11 7 -23 3 -27 -4 -5 -1 -5 7 0 10 6 11 2 6 -15 -5 -15 -4 -20 4 -16 6
4 11 5 11 2 0 -3 -4 -7 -9 -10 -5 -3 -19 10 -30 30 -12 20 -24 34 -27 31 -3
-3 7 -24 22 -48 14 -23 42 -77 62 -118 19 -42 37 -79 39 -83 2 -5 2 -8 -1 -8
-3 0 -21 31 -40 70 -48 96 -96 163 -157 218 -20 17 -26 19 -26 7 0 -8 2 -13 5
-10 5 5 48 -47 45 -55 -1 -3 12 -21 30 -40 22 -24 24 -28 7 -14 -53 43 -64 47
-30 11 19 -21 35 -41 35 -45 0 -4 6 -6 13 -5 7 0 11 -2 8 -5 -3 -3 2 -15 11
-26 18 -21 18 -21 -3 -3 -11 9 -24 14 -27 10 -7 -7 33 -39 45 -36 4 2 5 -6 3
-17 -2 -10 4 -25 13 -32 16 -12 16 -11 2 7 -14 18 -13 19 1 8 9 -7 18 -11 20
-9 2 2 5 -7 5 -20 1 -14 10 -35 20 -47 l19 -22 -25 21 c-68 57 -91 64 -35 11
33 -32 51 -54 41 -51 -15 6 -17 4 -11 -7 7 -11 5 -11 -11 1 -10 8 -22 20 -26
25 -4 6 -8 7 -8 3 0 -11 -60 13 -60 24 0 5 -4 6 -10 3 -29 -18 -150 69 -150
108 0 10 -4 15 -10 12 -6 -4 -6 4 0 21 9 22 8 29 -5 37 -44 24 -85 70 -85 96
0 19 -12 37 -44 63 -65 55 -99 144 -61 165 20 11 168 -2 208 -18z m2070 -47
c28 5 55 -14 59 -42 2 -16 1 -27 -4 -24 -4 3 -8 12 -8 19 0 22 -34 37 -50 22
-10 -9 -11 -9 -6 0 3 6 -1 16 -10 21 -11 6 -14 14 -8 23 7 11 9 10 12 -4 2
-10 9 -17 15 -15z m80 -12 c3 -11 3 -20 1 -20 -2 0 -8 9 -14 20 -6 11 -7 20
-2 20 6 0 12 -9 15 -20z m330 -4 c3 3 15 3 26 -1 17 -5 20 -12 16 -35 -4 -25
-2 -28 18 -24 21 4 20 4 -2 -6 -19 -8 -22 -13 -12 -23 9 -9 14 -9 21 3 8 13
10 12 10 -4 0 -13 -5 -17 -18 -14 -10 3 -23 -1 -30 -9 -17 -17 -29 -17 -29 2
0 9 5 14 12 12 6 -3 11 8 12 27 1 17 -1 24 -4 16 -8 -20 -44 -54 -61 -56 -18
-3 -27 25 -13 39 9 9 11 9 8 -3 -2 -8 -2 -12 0 -7 3 4 9 5 14 2 5 -4 6 2 2 12
-6 16 -5 17 13 3 18 -14 18 -14 5 2 -9 13 -18 15 -31 8 -10 -6 -21 -5 -28 0
-8 7 -9 7 -3 -1 11 -13 2 -51 -10 -43 -5 3 -6 -2 -2 -11 4 -12 8 -13 13 -5 5
8 9 7 13 -4 4 -10 -6 -28 -24 -48 -17 -18 -71 -114 -120 -213 -50 -99 -95
-184 -101 -190 -6 -5 3 17 20 50 17 33 53 107 80 165 27 58 61 125 76 149 21
33 25 46 16 55 -6 6 -10 7 -9 1 2 -5 -7 -25 -19 -44 -17 -28 -21 -31 -19 -13
1 12 4 22 7 22 3 0 6 10 7 22 1 11 7 24 13 28 7 4 12 11 12 16 1 17 25 44 33
36 5 -4 5 -1 1 6 -6 9 -11 10 -20 3 -7 -6 -16 -8 -20 -4 -4 4 -4 -1 0 -11 5
-14 4 -17 -5 -12 -6 4 -10 4 -9 -1 1 -4 -4 -19 -11 -32 -24 -44 -31 -83 -18
-100 10 -14 10 -14 -4 -4 -14 11 -18 5 -34 -49 -11 -33 -20 -57 -22 -52 -5 16
63 211 91 259 15 25 31 43 37 39 5 -3 8 -1 7 5 -2 5 13 21 32 36 30 22 36 24
46 10 6 -8 14 -12 17 -9z m-378 -33 c5 -14 4 -15 -6 -6 -10 10 -15 9 -26 -5
-10 -13 -13 -14 -11 -2 6 31 33 39 43 13z m62 -45 c-3 -7 -5 -2 -5 12 0 14 2
19 5 13 2 -7 2 -19 0 -25z m-17 -30 c0 -9 -4 -19 -9 -22 -4 -3 -6 6 -3 21 3
18 1 24 -6 19 -8 -5 -10 -1 -5 9 5 13 7 14 14 3 5 -7 9 -21 9 -30z m-1803 0
c-3 -8 -6 -5 -6 6 -1 11 2 17 5 13 3 -3 4 -12 1 -19z m1893 -149 c-69 -273
-204 -499 -396 -663 -39 -34 -91 -72 -115 -85 -56 -31 -51 -26 46 46 203 151
356 370 429 617 24 81 36 128 40 169 2 12 7 38 12 57 8 32 9 33 12 9 2 -14
-11 -82 -28 -150z m308 129 c-2 -6 8 -15 22 -19 14 -4 20 -7 13 -8 -6 -1 -15
-10 -18 -21 -3 -11 -11 -20 -17 -20 -7 0 -6 5 2 15 10 11 9 18 -3 30 -9 8 -18
11 -21 6 -3 -5 2 -12 12 -16 16 -6 16 -7 0 -19 -9 -7 -15 -21 -13 -32 2 -10 4
-23 4 -29 1 -5 6 -3 11 5 8 13 10 12 11 -5 1 -11 3 -35 5 -52 3 -36 -30 -88
-48 -77 -7 4 -8 2 -4 -5 10 -15 -79 -55 -102 -46 -9 3 -13 3 -9 -1 3 -4 -11
-15 -32 -26 -21 -10 -58 -39 -82 -63 -39 -38 -45 -42 -45 -23 0 13 25 48 59
85 64 68 69 82 13 33 -34 -30 -34 -30 -23 -5 7 13 16 25 20 25 5 0 6 4 3 8 -3
5 9 22 27 38 l32 29 -30 -35 -30 -35 32 29 c18 16 30 32 28 36 -7 11 44 42 55
35 5 -3 7 1 4 9 -4 10 9 22 43 40 26 14 43 25 36 26 -7 0 -33 -11 -58 -25 -26
-13 -42 -19 -36 -11 6 7 8 15 6 18 -11 11 64 58 82 52 15 -5 15 -4 3 5 -12 9
-13 11 -1 11 8 0 12 3 8 6 -10 11 -49 -8 -91 -44 -41 -36 -41 -36 -11 -3 33
37 83 66 104 62 8 -1 10 2 5 10 -4 7 -3 10 4 5 6 -3 13 -2 17 4 8 14 16 13 13
-2z m-78 -2 c0 -2 -8 -10 -17 -17 -16 -13 -17 -12 -4 4 13 16 21 21 21 13z
m-259 -66 c-5 -25 -9 -35 -10 -24 -1 28 11 92 16 79 1 -6 -1 -30 -6 -55z m-54
13 c-3 -10 -5 -4 -5 12 0 17 2 24 5 18 2 -7 2 -21 0 -30z m-3352 18 c3 -5 2
-12 -3 -15 -5 -3 -9 1 -9 9 0 17 3 19 12 6z m3138 -19 c-2 -7 2 -12 8 -12 7 0
9 -10 5 -24 -4 -16 0 -30 10 -40 19 -20 31 -21 15 -2 -10 12 -9 13 8 9 28 -7
51 -73 51 -146 0 -232 -185 -500 -438 -636 -44 -23 -21 -3 36 32 78 48 216
181 206 199 -4 7 -4 10 1 6 12 -11 66 54 59 72 -3 8 -2 11 2 7 11 -10 56 66
83 138 28 74 44 190 24 173 -10 -8 -13 -6 -13 8 0 11 -5 26 -11 34 -8 12 -9
10 -4 -7 4 -14 2 -23 -4 -23 -6 0 -12 5 -12 10 -3 20 -4 25 -13 39 -6 9 -5 12
1 8 6 -4 10 1 9 11 -1 11 5 16 17 14 9 -2 17 2 17 8 0 5 -3 9 -8 8 -4 -2 -18
7 -32 20 -13 12 -27 22 -31 22 -4 0 -10 7 -13 16 -6 15 -4 15 11 3 15 -12 16
-12 10 4 -4 11 -3 16 3 12 17 -11 11 7 -7 21 -15 11 -15 14 -3 14 10 1 9 4 -5
11 l-20 9 20 -3 c11 -2 19 -9 18 -15z m660 4 c7 3 3 -2 -7 -10 -18 -14 -15
-21 7 -17 11 2 8 -5 -9 -19 -12 -11 -15 -11 -12 0 2 7 -2 14 -9 17 -6 2 -10
-4 -9 -14 2 -10 1 -12 -1 -5 -3 8 -10 11 -17 9 -7 -3 -13 1 -13 8 0 7 6 11 13
8 7 -2 19 5 26 16 7 12 14 17 16 11 2 -6 9 -8 15 -4z m-3860 -11 c4 -8 3 -16
-1 -19 -4 -3 -9 4 -9 15 -2 23 3 25 10 4z m37 9 c0 -8 -19 -13 -24 -6 -3 5 1
9 9 9 8 0 15 -2 15 -3z m41 -7 c-6 -8 -8 -16 -5 -19 3 -3 1 -9 -4 -12 -6 -3
-9 0 -8 6 2 16 15 38 23 38 3 0 0 -6 -6 -13z m1497 -28 c-3 -8 -7 -3 -11 10
-4 17 -3 21 5 13 5 -5 8 -16 6 -23z m-1536 -11 c-8 -8 -9 -4 -5 13 4 13 8 18
11 10 2 -7 -1 -18 -6 -23z m748 7 c14 -19 14 -19 -2 -6 -10 7 -18 18 -18 24 0
6 1 8 3 6 1 -2 9 -13 17 -24z m174 8 c4 -9 -3 -9 -27 -1 -44 15 -45 18 -9 15
18 -1 34 -7 36 -14z m-109 -2 c3 -5 2 -12 -3 -15 -5 -3 -9 1 -9 9 0 17 3 19
12 6z m3385 -5 c9 -12 8 -15 -8 -13 -12 0 -18 6 -15 14 6 16 8 16 23 -1z
m-4135 -5 c3 -5 2 -12 -3 -15 -5 -3 -9 1 -9 9 0 17 3 19 12 6z m835 -22 c0
-26 -27 -24 -41 2 -8 15 -8 19 0 15 6 -4 11 -3 11 3 0 6 7 8 15 5 8 -4 15 -15
15 -25z m117 -16 c-6 -6 -76 30 -77 39 0 4 18 -2 40 -13 23 -12 39 -23 37 -26z
m-1052 28 c3 -5 2 -12 -3 -15 -5 -3 -9 1 -9 9 0 17 3 19 12 6z m3156 -18 c13
-16 12 -17 -3 -4 -17 13 -22 21 -14 21 2 0 10 -8 17 -17z m1016 -5 c-3 -8 -6
-5 -6 6 -1 11 2 17 5 13 3 -3 4 -12 1 -19z m-3987 6 c0 -8 -19 -13 -24 -6 -3
5 1 9 9 9 8 0 15 -2 15 -3z m606 -6 c3 -4 -1 -5 -10 -4 -8 1 -18 5 -22 8 -3 4
1 5 10 4 8 -1 18 -5 22 -8z m211 -22 c-4 -9 -11 -16 -16 -16 -15 0 -23 33 -9
41 17 11 32 -5 25 -25z m2448 -6 c-9 -41 -17 -33 -9 9 4 17 9 30 11 27 3 -2 2
-19 -2 -36z m655 9 c0 -26 -32 -22 -36 4 -1 9 2 15 7 11 5 -3 9 0 9 6 0 6 5 8
10 5 6 -3 10 -15 10 -26z m-3990 7 c0 -2 -8 -10 -17 -17 -16 -13 -17 -12 -4 4
13 16 21 21 21 13z m45 -5 c3 -5 2 -12 -3 -15 -5 -3 -9 1 -9 9 0 17 3 19 12 6z
m413 -2 c-2 -6 3 -14 11 -17 9 -3 11 0 6 8 -5 8 1 7 16 -3 28 -20 43 -22 33
-4 -4 6 2 4 13 -5 20 -19 59 -25 48 -9 -3 5 -1 12 4 15 5 4 8 -2 7 -11 -2 -9
-9 -19 -17 -21 -8 -3 -23 -12 -34 -21 -12 -9 -15 -10 -7 -1 18 21 15 35 -5 19
-11 -10 -14 -10 -9 -1 4 6 3 12 -1 12 -5 0 -15 -6 -23 -12 -12 -11 -12 -10 -1
5 15 20 2 23 -18 5 -11 -10 -13 -10 -7 0 4 6 2 12 -3 12 -6 0 -11 -6 -11 -12
0 -8 -3 -9 -8 -3 -4 6 -16 12 -26 13 -18 3 -19 2 -5 -15 13 -16 13 -17 -3 -4
-10 7 -24 11 -33 8 -8 -4 -17 -1 -21 4 -4 6 -15 2 -29 -11 -15 -14 -25 -18
-30 -11 -4 7 -1 10 7 9 7 -2 12 3 10 10 -1 8 2 11 7 8 5 -4 13 -2 16 4 5 8 12
7 23 -2 14 -11 15 -10 8 7 -4 11 -4 16 0 12 4 -4 14 -1 22 6 13 9 14 9 8 0 -4
-7 -3 -13 3 -13 5 0 12 6 14 13 3 6 6 3 6 -7 1 -18 15 -14 17 5 2 16 4 19 9
19 3 0 4 -5 3 -11z m2635 -7 c16 -18 14 -32 -6 -32 -5 0 -6 7 -3 16 4 11 2 15
-7 11 -8 -3 -14 1 -14 9 0 19 11 18 30 -4z m437 13 c0 -2 -6 -8 -13 -14 -10
-8 -14 -7 -14 2 0 8 6 14 14 14 7 0 13 -1 13 -2z m-2969 -22 c13 -16 12 -17
-3 -4 -10 7 -18 15 -18 17 0 8 8 3 21 -13z m3454 -3 c-6 -9 -65 -31 -65 -24 0
3 13 10 30 15 17 6 27 16 23 22 -3 6 -1 7 6 3 6 -4 9 -11 6 -16z m55 15 c0 -7
-30 -13 -34 -7 -3 4 4 9 15 9 10 1 19 0 19 -2z m-4050 -8 c0 -2 -10 -12 -22
-23 l-23 -19 19 23 c18 21 26 27 26 19z m47 -12 c0 -8 -4 -12 -9 -9 -5 3 -6
10 -3 15 9 13 12 11 12 -6z m881 -2 c-5 -25 -28 -28 -28 -4 0 12 6 21 16 21 9
0 14 -7 12 -17z m2976 -8 c-5 -12 -10 -13 -20 -4 -19 15 -18 19 6 19 13 0 18
-5 14 -15z m-3883 -12 c13 -16 12 -17 -3 -4 -10 7 -18 15 -18 17 0 8 8 3 21
-13z m53 8 c3 -5 -1 -14 -8 -20 -10 -9 -16 -9 -21 -1 -4 6 -1 9 7 8 7 -2 12 3
11 10 -3 14 3 16 11 3z m2980 -23 c-3 -5 0 -16 8 -25 7 -9 8 -14 2 -10 -7 4
-17 0 -23 -7 -8 -10 -9 -16 -1 -21 5 -3 10 -14 10 -23 -1 -12 -5 -10 -15 8
-17 29 -20 9 -4 -22 8 -15 8 -19 0 -14 -6 4 -11 1 -11 -6 -1 -8 -5 -7 -14 5
-13 16 -15 15 -34 -15 -15 -24 -18 -36 -10 -45 6 -8 13 -11 17 -8 3 3 -1 10
-9 15 -11 7 -12 10 -2 10 7 0 11 3 9 8 -3 4 1 13 9 20 8 7 14 11 15 10 0 -2 3
-12 6 -23 10 -40 10 -111 -2 -155 -17 -65 -39 -102 -101 -176 -31 -36 -47 -60
-37 -54 34 22 124 145 164 225 22 44 37 69 33 55 -31 -114 -162 -283 -278
-362 -19 -13 -14 -6 13 19 24 21 46 50 48 63 4 24 3 24 -26 -4 -17 -16 -28
-32 -26 -36 2 -4 -3 -7 -11 -7 -10 0 -6 10 13 31 16 17 31 32 36 34 12 6 8 22
-5 20 -14 -3 -14 3 0 70 5 23 9 62 8 86 0 24 2 42 7 39 4 -2 7 2 7 9 0 7 9 19
20 26 17 11 19 19 13 74 -4 43 -3 59 5 54 7 -4 10 1 7 13 -2 11 5 27 15 36 16
14 18 14 24 0 3 -9 2 -13 -4 -10 -15 9 -11 -17 5 -39 14 -18 20 -15 16 7 -1 5
4 5 10 1 9 -5 10 -2 6 10 -4 10 -3 15 3 11 6 -3 13 1 16 10 6 14 8 14 20 -2
12 -16 12 -14 4 15 -5 18 -5 30 0 27 14 -8 27 18 26 52 -1 24 2 29 11 21 7 -6
10 -14 7 -20z m-2470 -8 c-18 -34 -31 -45 -31 -25 0 8 4 12 9 9 4 -3 8 1 8 8
0 12 18 38 26 38 1 0 -4 -13 -12 -30z m437 13 c13 -16 12 -17 -3 -4 -10 7 -18
15 -18 17 0 8 8 3 21 -13z m-897 -2 c3 -5 -1 -14 -8 -20 -10 -9 -16 -9 -21 -1
-4 6 -1 9 7 8 7 -2 12 3 11 10 -3 14 3 16 11 3z m501 0 c3 -5 2 -12 -3 -15 -5
-3 -9 1 -9 9 0 17 3 19 12 6z m365 0 c0 -16 -28 -20 -34 -5 -4 9 1 14 14 14
11 0 20 -4 20 -9z m-820 -7 c0 -8 -19 -13 -24 -6 -3 5 1 9 9 9 8 0 15 -2 15
-3z m84 -3 c3 -5 -2 -15 -12 -22 -15 -12 -16 -12 -5 2 7 9 10 19 6 22 -3 4 -4
7 0 7 3 0 8 -4 11 -9z m802 -13 c4 -6 3 -8 -4 -4 -6 3 -13 -3 -17 -14 -5 -17
-10 -19 -21 -9 -20 16 -17 27 9 32 12 2 23 5 24 6 1 0 5 -4 9 -11z m-991 -7
c3 -5 2 -12 -3 -15 -5 -3 -9 1 -9 9 0 17 3 19 12 6z m72 2 c-4 -3 -1 -13 6
-22 11 -14 10 -14 -5 -2 -16 12 -16 31 -1 31 4 0 3 -3 0 -7z m3650 -8 c0 -8
-4 -15 -9 -15 -4 0 -8 7 -8 15 0 8 4 15 8 15 5 0 9 -7 9 -15z m-3922 -4 c3 -5
2 -12 -3 -15 -5 -3 -9 1 -9 9 0 17 3 19 12 6z m248 -34 c-4 -7 -8 -6 -11 3 -3
8 -10 22 -16 30 -6 8 -1 7 11 -4 13 -10 20 -23 16 -29z m103 26 c-2 -10 -11
-19 -22 -20 -18 -3 -18 -2 1 6 11 5 16 10 12 10 -5 1 -5 6 -2 11 9 15 14 12
11 -7z m65 0 c13 -16 12 -17 -3 -4 -17 13 -22 21 -14 21 2 0 10 -8 17 -17z
m239 11 c0 -8 -19 -13 -24 -6 -3 5 1 9 9 9 8 0 15 -2 15 -3z m76 -9 c-1 -8 -5
-17 -8 -21 -5 -4 -4 16 1 34 3 9 9 -1 7 -13z m477 -15 c-3 -11 -9 -20 -14 -20
-14 0 -11 28 4 33 6 3 13 6 14 6 0 1 -1 -8 -4 -19z m1777 5 c-7 -8 -9 -22 -6
-31 5 -14 4 -15 -8 -5 -11 10 -14 26 -7 49 1 1 8 2 17 2 13 0 14 -3 4 -15z
m-2349 -12 c13 -16 12 -17 -3 -4 -10 7 -18 15 -18 17 0 8 8 3 21 -13z m2577
-10 c1 -14 -1 -23 -5 -19 -5 4 -8 11 -8 14 0 4 -4 13 -8 20 -5 7 -3 12 5 12 8
0 15 -12 16 -27z m159 5 c-3 -8 -6 -5 -6 6 -1 11 2 17 5 13 3 -3 4 -12 1 -19z
m513 2 c0 -5 -5 -10 -11 -10 -5 0 -7 5 -4 10 3 6 8 10 11 10 2 0 4 -4 4 -10z
m-3613 -15 c0 -8 -4 -12 -9 -9 -5 3 -6 10 -3 15 9 13 12 11 12 -6z m344 -2
c13 -16 12 -17 -3 -4 -10 7 -18 15 -18 17 0 8 8 3 21 -13z m2629 7 c0 -5 -2
-10 -4 -10 -3 0 -8 5 -11 10 -3 6 -1 10 4 10 6 0 11 -4 11 -10z m-3045 -20
c10 -11 16 -20 13 -20 -3 0 -13 9 -23 20 -10 11 -16 20 -13 20 3 0 13 -9 23
-20z m40 0 c10 -11 16 -20 13 -20 -3 0 -13 9 -23 20 -10 11 -16 20 -13 20 3 0
13 -9 23 -20z m1012 0 c1 -11 -4 -20 -13 -20 -17 0 -18 12 -2 28 7 7 12 12 13
12 0 0 1 -9 2 -20z m2144 -7 c-12 -20 -14 -14 -5 12 4 9 9 14 11 11 3 -2 0
-13 -6 -23z m-1820 0 c13 -16 12 -17 -3 -4 -17 13 -22 21 -14 21 2 0 10 -8 17
-17z m1686 -30 c-3 -10 -5 -2 -5 17 0 19 2 27 5 18 2 -10 2 -26 0 -35z m-17 7
c0 -16 -2 -30 -4 -30 -2 0 -6 14 -8 30 -3 17 -1 30 4 30 4 0 8 -13 8 -30z
m600 18 c0 -4 -7 -8 -15 -8 -8 0 -15 4 -15 8 0 5 7 9 15 9 8 0 15 -4 15 -9z
m-620 -30 c0 -19 -16 -5 -17 14 -2 18 0 20 7 8 5 -8 10 -18 10 -22z m-2580 18
c0 -2 -8 -10 -17 -17 -16 -13 -17 -12 -4 4 13 16 21 21 21 13z m2547 -28 c-3
-7 -5 -2 -5 12 0 14 2 19 5 13 2 -7 2 -19 0 -25z m-2447 17 c0 -2 -6 -8 -13
-14 -10 -8 -14 -7 -14 2 0 8 6 14 14 14 7 0 13 -1 13 -2z m2430 -33 l0 -27
-14 25 c-13 26 -11 44 5 35 5 -4 9 -18 9 -33z m-2410 25 c0 -2 -10 -12 -22
-23 l-23 -19 19 23 c18 21 26 27 26 19z m-60 -12 c0 -2 -6 -8 -13 -14 -10 -8
-14 -7 -14 2 0 8 6 14 14 14 7 0 13 -1 13 -2z m105 -4 c3 -5 2 -12 -3 -15 -5
-3 -9 1 -9 9 0 17 3 19 12 6z m2407 -31 c-2 -16 -6 -30 -8 -30 -2 0 -4 14 -4
30 0 17 4 30 8 30 5 0 7 -13 4 -30z m128 -29 c-28 -56 -35 -52 -8 4 12 24 23
43 26 41 2 -2 -6 -22 -18 -45z m660 35 c0 14 60 -29 66 -48 17 -51 25 -108 14
-108 -4 0 -7 -8 -6 -17 0 -10 -4 -17 -10 -16 -7 1 -10 -6 -7 -17 3 -11 0 -20
-6 -20 -6 0 -2 -9 10 -21 16 -16 20 -29 16 -57 -9 -74 -58 -155 -103 -172 -16
-6 -24 -17 -24 -32 0 -13 -9 -40 -19 -60 -11 -19 -17 -39 -13 -44 4 -4 2 -4
-4 -1 -6 4 -19 -2 -29 -13 -10 -11 -36 -25 -57 -32 -29 -8 -38 -16 -38 -33 0
-37 -38 -61 -110 -70 -14 -2 -27 -4 -30 -5 -13 -5 -89 2 -125 11 -22 6 -45 11
-52 11 -7 1 -10 5 -7 10 3 4 -3 8 -13 9 -16 0 -16 1 2 9 15 7 10 9 -24 9 -24
1 -42 4 -39 7 3 3 50 5 103 5 90 0 125 6 62 11 -15 1 -27 5 -27 9 0 10 -67 21
-132 22 -64 1 -66 14 -3 19 39 4 39 4 15 15 -15 7 -19 12 -10 12 9 1 21 -4 27
-10 9 -9 29 -7 80 5 38 10 75 21 83 27 10 7 6 7 -15 2 -16 -4 -43 -7 -58 -7
-20 1 -24 -2 -15 -7 8 -5 -1 -6 -21 -2 -24 4 -32 3 -27 -5 5 -8 1 -10 -11 -5
-14 6 -10 10 22 22 22 9 74 32 115 52 54 27 67 36 45 34 -16 -2 -34 -4 -38 -4
-5 -1 -5 -6 -1 -13 4 -7 3 -8 -4 -4 -6 4 -28 -2 -49 -12 -21 -11 -49 -22 -63
-26 -14 -3 -5 4 20 17 92 47 112 59 106 64 -3 3 -11 1 -18 -4 -22 -18 -109
-53 -102 -42 8 13 -26 4 -70 -18 -44 -23 -159 -63 -176 -62 -8 0 9 9 39 20
110 39 307 151 303 172 -1 4 -5 6 -9 5 -5 -2 -7 -6 -5 -10 2 -7 -6 -9 -24 -7
-3 0 -12 -8 -20 -18 -9 -11 -12 -13 -9 -3 3 8 29 35 58 60 73 62 124 125 166
206 53 100 72 126 88 120 8 -3 12 -2 9 3 -3 5 0 13 7 19 17 14 67 23 67 12 0
-5 13 -2 29 8 16 9 27 20 25 24 -3 4 6 4 20 -2 14 -5 26 -7 26 -4z m-3290 -12
c0 -8 -19 -13 -24 -6 -3 5 1 9 9 9 8 0 15 -2 15 -3z m2517 -16 c-3 -8 -6 -5
-6 6 -1 11 2 17 5 13 3 -3 4 -12 1 -19z m-1116 -25 c13 -16 12 -17 -3 -4 -10
7 -18 15 -18 17 0 8 8 3 21 -13z m1576 -11 c35 -43 -22 -196 -99 -268 -72 -68
-185 -146 -279 -194 -98 -49 -236 -97 -247 -86 -3 3 0 6 8 6 32 0 201 77 258
117 77 55 82 66 6 16 -35 -23 -58 -33 -62 -26 -5 6 -28 -1 -65 -22 -33 -18
-53 -35 -45 -37 7 -3 -4 -10 -24 -17 -21 -7 -43 -9 -49 -5 -7 4 -9 3 -6 -3 4
-7 -8 -14 -31 -18 -32 -6 -34 -9 -17 -16 14 -7 8 -8 -20 -4 -29 4 -36 3 -25
-4 13 -9 13 -11 -1 -11 -9 0 -22 7 -29 15 -8 9 -8 15 -2 15 6 0 23 5 39 12 15
6 32 10 36 9 5 -1 6 3 2 9 -4 7 -12 7 -25 0 -39 -21 -33 -9 10 20 25 17 44 35
42 40 -1 6 1 9 5 9 23 -4 36 6 73 56 24 32 38 61 34 68 -4 6 -4 9 1 5 4 -4 23
6 42 22 23 21 44 30 67 30 28 0 36 5 46 30 23 55 69 109 99 117 19 5 41 25 63
57 42 62 89 89 142 81 22 -3 46 -13 53 -23z m-1596 -9 c13 -16 12 -17 -3 -4
-10 7 -18 15 -18 17 0 8 8 3 21 -13z m1119 -20 c-11 -17 -11 -17 -6 0 3 10 6
24 7 30 0 9 2 9 5 0 3 -7 0 -20 -6 -30z m195 0 c-32 -50 -103 -139 -122 -153
-10 -8 -4 1 12 20 17 20 50 64 75 98 45 63 67 84 35 35z m-477 -52 c9 -31 -9
-116 -23 -104 -5 4 -4 1 2 -7 9 -12 6 -25 -11 -59 -18 -35 -24 -40 -30 -26 -3
10 -4 20 -1 23 3 3 5 -1 5 -9 0 -11 2 -11 10 1 13 20 13 33 0 25 -7 -4 -10 8
-8 34 2 23 6 41 10 41 4 0 5 11 2 24 -2 14 0 28 6 31 7 4 7 12 0 24 -10 21 -7
28 15 28 8 0 18 -12 23 -26z m-49 -27 c-6 -7 -7 -19 -3 -25 4 -7 3 -9 -3 -6
-14 9 -19 -15 -18 -95 1 -37 -3 -62 -7 -55 -5 8 -8 7 -8 -5 0 -9 -5 -20 -10
-23 -6 -4 -10 -3 -9 2 1 4 -1 16 -5 25 -4 9 -6 25 -3 35 3 12 5 8 6 -10 0 -16
5 -26 9 -23 5 3 7 23 5 45 -2 28 1 41 10 41 6 0 4 5 -6 11 -18 10 -18 11 0 24
17 13 17 14 -2 11 -11 -2 -14 -1 -7 1 7 3 10 9 6 14 -3 5 0 8 8 7 8 -2 13 6
12 19 -1 16 3 20 15 15 14 -5 14 -4 1 14 -14 18 -14 18 3 5 13 -10 15 -17 6
-27z m391 17 c-5 -11 -15 -23 -21 -27 -6 -3 -3 5 6 20 20 30 30 35 15 7z
m-1190 -56 c0 -1 -12 -12 -27 -26 -16 -13 -25 -20 -21 -15 4 5 2 16 -5 25 -11
14 -10 14 6 2 15 -12 21 -9 19 10 -1 3 6 6 14 6 8 0 14 -1 14 -2z m-190 -18
c0 -2 -8 -11 -18 -20 -15 -14 -19 -15 -19 -2 0 8 4 12 8 9 4 -2 10 0 14 6 6
10 15 14 15 7z m204 -6 c3 -5 -1 -14 -8 -20 -10 -9 -16 -9 -21 -1 -4 6 -1 9 7
8 7 -2 12 3 11 10 -3 14 3 16 11 3z m-80 -10 c3 -5 0 -14 -8 -20 -10 -9 -17
-7 -27 6 -13 16 -12 17 4 4 15 -12 21 -9 18 12 -1 10 7 9 13 -2z m-49 -31 c10
-11 16 -20 13 -20 -3 0 -13 9 -23 20 -10 11 -16 20 -13 20 3 0 13 -9 23 -20z
m165 14 c0 -8 -19 -13 -24 -6 -3 5 1 9 9 9 8 0 15 -2 15 -3z m50 -20 c0 -8
-19 -13 -24 -6 -3 5 1 9 9 9 8 0 15 -2 15 -3z m591 -27 c4 23 4 23 16 -2 6
-14 7 -22 1 -19 -5 3 -4 -2 2 -13 15 -23 -2 -94 -28 -114 -15 -13 -16 -12 -3
4 13 16 12 18 -6 16 -4 0 -10 8 -14 18 -7 16 -8 16 -8 1 -1 -9 -5 -20 -11 -23
-6 -4 -6 3 0 21 7 18 7 30 0 39 -5 6 -6 15 -2 19 4 4 3 6 -3 4 -5 -1 -11 2
-12 7 -2 6 7 10 20 10 16 0 22 6 23 23 2 36 5 39 13 12 8 -25 8 -25 12 -3z
m-35 -11 c2 -16 -21 -15 -38 2 -8 8 -5 9 12 5 18 -5 21 -3 15 8 -5 8 -4 10 0
6 5 -4 10 -14 11 -21z m192 -16 c-7 -10 -14 -17 -17 -15 -4 4 18 35 25 35 2 0
-1 -9 -8 -20z m-274 -55 c5 0 11 -6 14 -12 2 -7 -1 -13 -8 -13 -6 0 -8 5 -4
12 5 7 3 8 -6 3 -10 -6 -10 -11 3 -20 19 -14 23 -35 6 -35 -5 0 -7 -6 -3 -12
4 -7 -1 -6 -12 3 -23 19 -42 19 -54 -1 -7 -11 -10 -11 -10 -2 0 7 -5 10 -12 6
-7 -4 -8 -3 -4 5 4 6 10 9 14 7 4 -2 16 2 27 10 10 8 14 14 9 14 -6 0 -11 7
-11 15 0 12 3 12 15 2 13 -10 15 -9 10 11 -4 15 -3 20 5 15 7 -4 16 -8 21 -8z
m86 -59 c0 -2 -8 -10 -17 -17 -16 -13 -17 -12 -4 4 13 16 21 21 21 13z m-97
-32 c5 -10 6 -16 2 -12 -5 4 -15 2 -24 -4 -13 -10 -14 -10 -3 2 16 19 15 31
-3 24 -8 -4 -15 -2 -15 4 0 17 32 7 43 -14z m627 -28 c0 -5 -87 -46 -97 -46
-12 0 70 48 85 49 6 1 12 -1 12 -3z m-330 -90 c0 -2 -9 -6 -20 -9 -11 -3 -18
-1 -14 4 5 9 34 13 34 5z m267 -12 c-3 -3 -12 -4 -19 -1 -8 3 -5 6 6 6 11 1
17 -2 13 -5z m89 -74 c76 -39 144 -115 144 -161 0 -50 -69 -82 -131 -60 -28
10 -35 8 -61 -14 -21 -18 -41 -25 -72 -25 -70 0 -114 41 -146 137 -26 76 -50
108 -95 124 -36 14 -46 26 -20 26 8 0 15 -4 15 -8 0 -3 9 -9 21 -12 14 -4 19
-2 15 8 -5 14 35 12 86 -5 18 -6 30 -5 34 2 4 6 3 9 -2 6 -5 -3 -25 1 -44 8
-32 13 -26 14 76 11 105 -2 115 -4 180 -37z m141 14 c-3 -3 -12 -4 -19 -1 -8
3 -5 6 6 6 11 1 17 -2 13 -5z m-822 -24 c10 -11 22 -17 26 -14 5 3 6 -3 2 -13
-6 -16 -5 -16 10 -4 13 10 15 17 6 27 -8 10 -8 14 0 14 6 0 11 -5 11 -10 0 -6
8 -10 17 -8 10 2 26 -11 39 -30 43 -63 65 -142 75 -267 6 -66 15 -143 20 -171
12 -64 53 -127 96 -151 36 -19 46 -37 38 -64 -8 -23 -38 -32 -99 -30 -33 1
-54 7 -63 19 -8 9 -11 11 -7 3 4 -7 -7 -3 -25 10 -20 14 -38 42 -49 71 -9 26
-20 48 -24 48 -14 0 -38 59 -38 94 0 20 -9 50 -20 68 -14 23 -18 42 -14 65 5
24 1 39 -15 59 -28 36 -26 59 9 119 16 28 30 63 30 78 0 34 -24 82 -47 96 -10
6 -13 11 -7 11 6 0 19 -9 29 -20z m205 10 c-11 -7 -11 -10 -2 -10 7 0 11 -4 8
-8 -3 -5 2 -9 10 -9 8 0 13 5 11 12 -3 6 3 11 13 11 10 0 18 -3 17 -6 -1 -3
13 -19 32 -36 26 -23 31 -33 21 -39 -9 -6 -11 -4 -5 5 5 9 4 11 -4 6 -6 -4
-10 -3 -9 2 2 6 -1 10 -5 10 -5 1 -17 11 -28 23 -10 12 -19 18 -19 12 0 -5 9
-18 20 -28 12 -10 30 -34 41 -52 12 -18 26 -30 32 -26 7 4 8 0 3 -13 -5 -14
-4 -16 4 -8 14 14 -5 58 -21 49 -5 -4 -9 -2 -9 4 0 25 22 19 40 -11 11 -18 20
-28 20 -23 0 13 -26 52 -59 89 -24 26 -24 28 -4 17 34 -17 67 -69 97 -148 17
-45 39 -82 57 -97 51 -43 175 -56 307 -30 26 5 32 3 34 -12 3 -43 -7 -91 -24
-112 -7 -9 -17 -23 -23 -30 -5 -7 -18 -21 -27 -30 -10 -9 -18 -24 -18 -32 0
-21 -47 -66 -84 -80 -49 -18 -171 16 -210 59 -11 12 -30 21 -44 21 -38 0 -82
31 -104 74 -15 30 -22 70 -28 160 -8 133 -17 160 -75 217 -25 26 -33 39 -24
45 8 4 10 3 5 -4 -9 -16 7 -15 22 0 9 9 11 7 8 -9 -6 -27 36 -67 70 -69 13 0
27 2 29 6 2 4 -10 6 -27 6 -17 -1 -33 5 -36 12 -2 7 0 12 5 11 17 -3 24 1 18
11 -5 8 -11 8 -20 0 -10 -8 -15 -8 -21 1 -4 8 -3 9 4 5 7 -4 12 -2 12 3 0 6
-4 11 -9 11 -10 0 -21 36 -13 44 3 3 10 6 16 6 6 0 4 -5 -4 -10z m-375 -20
c-22 -24 -32 -104 -15 -124 6 -9 8 -21 4 -27 -4 -7 -3 -9 3 -6 6 4 15 -6 21
-21 17 -43 19 -87 3 -78 -5 4 -7 -4 -3 -16 5 -21 4 -22 -11 -9 -9 7 -17 10
-17 6 0 -5 -10 0 -22 11 -13 10 -18 12 -11 5 6 -7 9 -21 6 -30 -3 -9 -1 -12 4
-6 17 21 33 15 34 -12 2 -51 -3 -76 -17 -90 -8 -8 -14 -19 -14 -24 0 -6 -6 -7
-12 -2 -7 4 -16 8 -20 9 -5 1 -11 2 -15 3 -5 1 -1 5 7 11 9 6 20 5 30 -3 13
-11 13 -10 1 6 -8 10 -20 16 -28 13 -13 -5 -17 5 -13 33 1 8 -4 17 -11 22 -7
4 -13 27 -14 52 0 24 -7 53 -15 63 -14 18 -14 18 4 4 18 -13 19 -13 14 1 -3 9
-2 22 3 30 7 12 9 12 10 -1 1 -8 0 -19 -1 -25 -10 -46 -9 -47 5 -35 8 7 13 16
10 20 -8 13 6 40 18 33 6 -3 7 -1 3 6 -4 6 -11 9 -16 6 -4 -3 -10 11 -12 31
-4 31 -2 34 8 19 12 -16 13 -16 19 6 3 13 7 34 8 46 0 12 4 20 8 17 10 -6 29
52 21 62 -4 4 -2 4 5 0 6 -3 14 -2 18 4 3 5 9 10 12 10 3 0 -2 -9 -12 -20z
m-120 -169 c3 -5 2 -12 -3 -15 -5 -3 -9 1 -9 9 0 17 3 19 12 6z m72 -293 c-15
-9 -33 -10 -24 -1 4 3 1 13 -6 21 -9 13 -9 14 1 8 7 -4 12 -2 12 5 0 7 6 4 14
-7 11 -14 11 -21 3 -26z m3 -18 c-12 -8 -12 -10 -1 -10 8 0 12 -2 10 -5 -3 -2
-16 -1 -29 2 -22 6 -23 7 -4 14 27 11 42 10 24 -1z m-1472 -29 c23 -28 9 -99
-26 -130 -36 -33 -61 -129 -64 -243 l-2 -73 -6 90 c-3 50 -7 76 -8 60 -1 -17
-8 -37 -14 -44 -11 -11 -10 -12 0 -6 11 6 13 -4 8 -49 -4 -37 -1 -80 10 -124
8 -37 17 -75 19 -85 2 -10 7 -28 9 -40 4 -14 0 -11 -10 8 l-15 30 5 -35 c7
-49 -6 -17 -39 100 -31 106 -40 122 -50 90 -5 -15 -2 -25 6 -31 8 -4 14 -23
15 -41 l2 -32 -16 29 c-76 145 -89 344 -26 394 13 10 24 24 24 31 0 24 72 111
87 106 8 -3 11 -2 8 3 -7 12 24 20 50 14 11 -3 26 -12 33 -22z m352 -12 c0 -4
-8 -8 -17 -8 -62 1 -139 -54 -221 -155 -32 -40 -82 -138 -102 -201 -33 -99
-42 -118 -34 -70 10 68 63 192 116 271 48 72 131 149 149 138 5 -3 9 -1 9 5 0
11 44 27 77 27 12 0 23 -3 23 -7z m40 7 c0 -11 -19 -15 -25 -6 -3 5 1 10 9 10
9 0 16 -2 16 -4z m40 -11 c0 -2 -7 -8 -15 -15 -12 -10 -15 -10 -15 2 0 8 7 15
15 15 8 0 15 -1 15 -2z m-46 -26 c-7 -13 23 -18 36 -6 10 9 11 9 4 -3 -5 -8
-9 -24 -9 -35 0 -23 -9 -25 -47 -11 -17 6 -28 18 -28 29 0 10 -4 16 -9 12 -5
-3 -13 0 -17 6 -4 7 -3 9 2 6 6 -3 15 -2 22 2 14 9 52 9 46 0z m-106 -34 c-20
-6 -51 -22 -69 -35 l-34 -23 28 27 c30 30 87 57 101 49 5 -3 -7 -11 -26 -18z
m45 -12 c-7 -2 -21 -2 -30 0 -10 3 -4 5 12 5 17 0 24 -2 18 -5z m-3 -23 c0 -5
6 -7 13 -4 30 11 92 -95 66 -112 -8 -5 -14 18 -10 39 1 5 -3 6 -9 2 -5 -3 -10
-1 -10 6 0 7 -2 10 -5 7 -7 -7 21 -59 37 -69 11 -7 11 -9 0 -9 -7 0 -10 -5 -6
-12 4 -7 3 -8 -4 -4 -7 4 -12 2 -12 -5 0 -10 -3 -10 -12 -1 -7 7 -16 12 -21
12 -5 0 -1 -7 8 -16 9 -9 13 -19 10 -22 -3 -4 -10 0 -15 8 -8 12 -10 11 -11
-5 0 -11 -3 -15 -5 -8 -4 8 -13 9 -33 2 -16 -6 -32 -9 -37 -8 -26 5 -55 -4
-87 -25 -19 -13 -39 -21 -43 -18 -4 4 -4 2 0 -5 3 -6 2 -14 -4 -18 -20 -12
-77 -112 -98 -170 -21 -60 -30 -58 -13 3 6 19 6 43 1 55 -7 19 -8 18 -8 -9 1
-17 -2 -36 -5 -41 -3 -5 -9 -25 -12 -44 -9 -51 -18 -50 -11 1 15 112 45 199
88 263 11 15 15 27 9 27 -6 0 -19 -17 -30 -37 -11 -21 -20 -34 -21 -29 0 17
56 112 90 150 19 21 34 44 32 50 -2 6 0 8 3 4 4 -4 27 3 50 16 59 33 115 46
115 26z m117 -45 c-5 -39 -16 -40 -14 -2 1 19 5 33 10 30 4 -2 6 -15 4 -28z
m-832 -13 c-3 -3 -11 0 -18 7 -9 10 -8 11 6 5 10 -3 15 -9 12 -12z m860 -52
c3 -5 -4 -6 -15 -3 -11 3 -22 9 -25 13 -3 5 4 6 15 3 11 -3 22 -9 25 -13z
m-784 -86 c8 -10 -12 2 -43 25 -32 24 -58 45 -58 48 0 7 86 -55 101 -73z m-60
-11 c13 -16 12 -17 -3 -4 -10 7 -18 15 -18 17 0 8 8 3 21 -13z m53 -87 c51
-25 131 -96 108 -96 -6 0 -16 8 -21 19 -14 25 -98 77 -137 86 -23 4 -33 2 -37
-9 -8 -20 -46 -9 -44 13 2 25 66 19 131 -13z m618 17 c6 -7 14 -11 18 -8 4 2
17 -6 29 -19 20 -22 21 -25 6 -40 -9 -9 -21 -13 -27 -10 -6 4 -5 10 3 15 8 5
10 9 4 9 -5 0 -4 4 4 9 8 5 9 11 3 15 -6 3 -14 -3 -17 -15 -7 -20 -7 -20 -22
-2 -8 10 -12 12 -8 5 9 -18 -13 -42 -33 -35 -14 6 -15 5 -2 -9 11 -11 17 -12
22 -4 4 6 8 7 8 2 0 -5 6 -4 13 2 10 8 16 5 27 -11 12 -21 12 -21 -5 -7 -17
14 -18 13 -12 -4 6 -16 5 -17 -8 -6 -11 9 -15 9 -15 1 0 -7 -4 -9 -10 -6 -5 3
-10 1 -10 -5 0 -7 7 -10 15 -7 8 4 17 2 20 -3 4 -6 3 -10 -2 -11 -4 0 -16 -2
-25 -4 -10 -2 -23 4 -29 13 -10 16 -10 16 -5 0 6 -22 -16 -40 -40 -32 -16 5
-17 4 -4 -6 13 -10 11 -11 -7 -7 -13 3 -26 1 -29 -4 -3 -5 -10 -7 -15 -4 -5 3
-6 -1 -3 -9 3 -8 0 -25 -7 -38 -7 -13 -13 -25 -14 -28 -1 -14 -33 -49 -38 -43
-4 3 -7 1 -7 -5 0 -7 6 -12 13 -13 9 0 9 -2 -1 -6 -6 -2 -15 -22 -18 -44 -8
-45 -22 -62 -18 -21 1 15 3 27 4 27 2 0 4 19 5 43 1 28 -1 40 -8 33 -5 -5 -15
-7 -22 -5 -13 5 -25 -27 -31 -81 -2 -21 -1 -24 5 -12 6 17 8 17 20 3 10 -12
10 -16 2 -16 -7 0 -11 -8 -10 -17 3 -31 -1 -44 -10 -39 -5 3 -8 14 -6 24 1 9
0 11 -2 4 -6 -17 -29 -8 -24 9 2 8 5 25 6 39 7 63 17 96 32 108 9 6 13 12 9
12 -5 0 -4 6 2 13 5 6 15 32 22 57 24 91 94 181 155 199 40 12 84 9 97 -6z
m-667 -31 c-3 -3 -11 0 -18 7 -9 10 -8 11 6 5 10 -3 15 -9 12 -12z m8 -21 c18
-6 18 -8 2 -21 -13 -11 -16 -11 -13 0 2 9 -9 14 -35 16 -22 1 -41 5 -45 8 -8
8 69 6 91 -3z m84 -51 c6 0 15 -4 18 -10 4 -7 -3 -7 -20 0 -15 6 -31 8 -36 4
-5 -3 -9 0 -9 5 0 6 -7 11 -16 11 -8 0 -13 4 -9 9 3 6 17 4 33 -5 15 -7 32
-14 39 -14z m-104 3 c-7 -2 -21 -2 -30 0 -10 3 -4 5 12 5 17 0 24 -2 18 -5z
m361 -30 c-4 -15 -7 -33 -7 -40 0 -7 -4 -10 -8 -7 -4 2 -4 17 1 33 4 16 6 32
2 35 -3 3 0 6 7 6 7 0 9 -9 5 -27z m-289 2 c6 -2 -13 -3 -42 -3 -29 1 -50 4
-48 8 4 6 70 2 90 -5z m232 -7 c-3 -8 -6 -5 -6 6 -1 11 2 17 5 13 3 -3 4 -12
1 -19z m-181 -15 c-6 -6 -36 9 -36 18 0 5 9 4 20 -3 10 -7 18 -14 16 -15z
m3215 -13 c2 -8 -8 -26 -22 -40 l-25 -25 -23 21 c-17 16 -20 23 -10 27 8 3 4
6 -8 6 -13 1 -23 5 -23 9 0 4 17 7 38 5 29 -2 33 -1 17 6 -16 8 -17 10 -3 10
9 1 20 -3 23 -9 11 -17 28 -11 20 8 -4 11 -3 14 4 7 5 -5 11 -17 12 -25z
m-3237 0 c8 -10 5 -11 -14 -5 -32 9 -25 3 20 -20 34 -17 34 -17 20 0 -30 36
43 -11 80 -52 22 -24 25 -29 8 -14 -16 14 -28 21 -28 18 0 -4 -17 2 -37 13
-29 16 -40 17 -52 7 -11 -9 -13 -9 -8 0 5 8 1 11 -15 7 -13 -2 -37 -5 -55 -6
-20 -1 -30 -5 -26 -12 3 -6 2 -8 -2 -3 -5 4 -18 -1 -29 -10 -21 -18 -21 -18
-3 3 9 11 15 23 13 25 -3 2 -7 16 -10 31 -3 19 0 28 12 31 32 8 114 -1 126
-13z m531 -37 c-6 -24 -7 -25 -20 -7 -12 16 -11 22 3 37 19 22 27 8 17 -30z
m30 38 c3 -5 2 -12 -3 -15 -5 -3 -9 1 -9 9 0 17 3 19 12 6z m2885 -31 c0 -5
-2 -10 -4 -10 -3 0 -8 5 -11 10 -3 6 -1 10 4 10 6 0 11 -4 11 -10z m-3480 -40
c-20 -13 -40 -12 -40 1 0 6 7 9 15 6 8 -4 17 -2 21 4 3 6 9 8 12 4 4 -3 0 -10
-8 -15z m3633 5 c-3 -9 -8 -14 -10 -11 -3 3 -2 9 2 15 9 16 15 13 8 -4z
m-3671 -29 c5 4 38 7 73 8 46 1 61 -2 58 -11 -3 -7 -9 -10 -14 -7 -5 3 -9 -1
-9 -8 0 -9 -3 -9 -10 2 -5 8 -10 10 -10 4 0 -19 -60 -23 -70 -5 -5 9 -10 11
-10 6 0 -6 5 -16 11 -22 7 -7 6 -15 -5 -25 -8 -9 -12 -19 -8 -23 4 -5 1 -5 -5
-1 -8 5 -13 1 -14 -11 0 -14 -2 -14 -9 5 -5 12 -12 22 -16 22 -3 0 -4 -7 0
-15 3 -8 0 -15 -7 -15 -8 0 -6 -4 3 -10 8 -5 10 -10 4 -10 -6 0 -18 8 -25 17
-12 14 -12 16 0 8 11 -6 13 -4 8 8 -3 10 -2 17 4 17 6 0 7 5 4 10 -4 6 -11 8
-16 5 -5 -3 -6 1 -3 10 6 14 8 14 20 -2 13 -16 14 -15 8 12 -4 17 -3 27 2 22
5 -5 9 -14 9 -20 0 -7 9 -13 20 -14 l20 -3 -20 9 c-11 5 -14 10 -7 10 10 1 10
4 -2 16 -17 17 -36 20 -36 5 0 -5 -5 -10 -11 -10 -16 0 1 21 25 29 15 6 22 4
24 -5 2 -8 8 -11 14 -8z m3748 21 c0 -2 -10 -12 -22 -23 l-23 -19 19 23 c18
21 26 27 26 19z m-107 -27 c-3 -12 -8 -19 -11 -16 -5 6 5 36 12 36 2 0 2 -9
-1 -20z m212 1 c-4 -11 -3 -12 10 -1 8 7 15 8 15 2 0 -5 12 -13 26 -16 15 -4
23 -10 19 -14 -3 -4 11 -15 32 -25 30 -14 32 -16 11 -12 -16 3 -28 2 -28 -3 0
-4 10 -8 21 -9 28 -2 40 -15 31 -30 -11 -17 -54 6 -67 35 -5 12 -13 22 -18 22
-4 0 -6 4 -2 10 3 5 -13 14 -35 20 -22 6 -40 15 -40 19 0 5 -10 7 -22 5 -19
-4 -20 -3 -5 4 30 13 58 10 52 -7z m82 -7 c-3 -3 -12 -4 -19 -1 -8 3 -5 6 6 6
11 1 17 -2 13 -5z m-3742 -24 c3 -6 -1 -7 -9 -4 -18 7 -21 14 -7 14 6 0 13 -4
16 -10z m103 -21 c-3 -8 -7 -3 -11 10 -4 17 -3 21 5 13 5 -5 8 -16 6 -23z
m3712 3 c3 -3 -8 -2 -25 2 -16 4 -34 12 -40 17 -5 5 6 4 25 -2 19 -7 37 -14
40 -17z m-3732 -13 c-3 -8 -7 -3 -11 10 -4 17 -3 21 5 13 5 -5 8 -16 6 -23z
m3375 16 c-3 -9 -8 -14 -10 -11 -3 3 -2 9 2 15 9 16 15 13 8 -4z m-3438 -17
c5 4 5 2 2 -4 -4 -7 0 -15 9 -18 8 -3 13 -10 10 -15 -3 -5 0 -11 7 -14 11 -4
33 -57 37 -89 1 -4 5 -21 10 -38 6 -20 5 -32 -3 -36 -7 -4 -9 -4 -6 -1 9 11
-17 101 -30 105 -10 3 -10 0 -2 -16 20 -37 11 -48 -14 -17 -14 17 -25 26 -25
21 0 -5 -10 -1 -22 10 l-22 19 23 -32 c12 -18 19 -38 15 -44 -4 -8 -3 -9 4 -5
7 4 14 -4 18 -20 l7 -27 14 27 c16 31 19 32 19 7 0 -11 -3 -18 -7 -15 -4 2
-10 -8 -14 -23 -4 -17 -2 -29 7 -34 13 -8 3 -13 -17 -9 -5 1 -4 -4 3 -11 20
-21 14 -36 -13 -34 -14 2 -25 -1 -25 -7 0 -6 7 -8 15 -5 8 4 17 1 21 -5 4 -7
3 -8 -4 -4 -7 4 -12 2 -12 -3 0 -6 6 -11 13 -11 8 0 8 -3 2 -8 -13 -9 -14 -45
-2 -53 5 -3 1 -9 -8 -12 -9 -4 -13 -3 -10 2 3 5 1 13 -5 16 -6 4 -9 20 -6 35
3 22 -4 38 -28 67 -41 47 -59 80 -51 93 3 6 1 10 -5 10 -7 0 -8 6 -1 19 9 15
6 20 -12 26 -12 4 -30 8 -39 8 -10 0 -18 4 -18 10 0 6 -3 7 -7 4 -3 -4 -14 0
-24 9 -14 12 -16 21 -9 35 7 12 6 20 -2 25 -6 4 -8 3 -4 -4 3 -6 2 -13 -3 -16
-16 -10 -6 23 16 52 23 32 58 37 87 13 14 -12 16 -12 10 3 -9 24 34 37 67 20
15 -7 30 -10 34 -6z m189 -2 c-3 -12 -8 -29 -11 -40 -3 -12 -8 -15 -15 -8 -14
14 0 69 18 69 10 0 12 -7 8 -21z m3401 4 c-4 -6 11 -10 39 -10 27 0 51 -6 60
-16 19 -19 21 -28 4 -18 -10 6 -10 4 0 -7 35 -37 -3 -86 -76 -98 -35 -6 -37
-8 -34 -42 2 -25 -5 -46 -24 -74 -44 -64 -54 -99 -55 -187 -1 -46 -3 -74 -6
-63 -2 11 -9 33 -16 50 l-11 29 -6 -24 c-5 -18 -8 -9 -13 35 -7 52 2 156 15
205 3 8 3 11 0 6 -2 -4 -9 -2 -14 5 -7 10 -8 8 -5 -9 3 -13 1 -20 -5 -16 -9 6
-4 76 9 113 4 9 3 13 -1 9 -5 -4 -17 -42 -27 -85 -18 -74 -19 -75 -14 -23 8
84 34 155 70 194 27 30 39 36 74 36 26 0 40 -4 36 -10z m229 -46 c3 -8 2 -12
-4 -9 -6 3 -10 10 -10 16 0 14 7 11 14 -7z m56 -44 c3 -1 8 -2 11 -2 3 1 6 -5
6 -13 0 -8 -5 -13 -11 -12 -5 1 -11 -7 -13 -18 -3 -15 -2 -17 5 -6 7 9 12 10
16 2 4 -6 3 -11 -2 -11 -6 0 -9 -8 -8 -17 0 -11 -5 -17 -14 -14 -8 2 -30 3
-47 3 -22 -1 -36 5 -43 18 -9 16 -7 18 16 14 15 -3 23 -1 20 5 -4 5 -2 12 4
16 6 4 8 11 5 16 -4 5 1 9 10 9 9 0 14 4 11 9 -5 8 15 8 34 1z m-3680 -29 c0
-6 -5 -13 -10 -16 -8 -5 -7 -12 2 -23 12 -15 11 -16 -5 -3 -12 9 -14 17 -7 26
5 6 7 15 3 18 -3 4 -1 7 5 7 7 0 12 -4 12 -9z m-167 -65 c-3 -5 -12 2 -19 15
-20 35 -17 45 5 18 11 -13 17 -28 14 -33z m116 33 c11 -19 11 -21 -4 -16 -9 4
-14 3 -10 -2 5 -9 14 -71 10 -71 -1 0 -10 9 -20 20 -18 20 -18 21 1 14 15 -6
17 -5 9 7 -13 18 -19 69 -8 69 4 0 14 -10 22 -21z m41 -38 c7 -14 7 -22 -2
-27 -7 -4 -8 -3 -4 4 4 7 3 12 -2 12 -5 0 -9 7 -9 15 0 20 4 19 17 -4z m-392
-20 c6 -1 12 -8 12 -16 0 -8 6 -14 13 -12 6 1 11 -4 10 -10 -2 -7 4 -13 12
-13 8 0 14 -3 14 -7 -1 -5 0 -10 1 -13 7 -15 6 -69 -1 -64 -5 3 -9 0 -9 -6 0
-6 8 -10 18 -9 34 3 41 -1 35 -18 -3 -10 -3 -15 2 -11 12 11 35 -11 29 -27 -3
-7 0 -23 6 -35 8 -15 8 -20 1 -16 -15 10 -14 -7 2 -24 6 -8 1 -6 -11 5 -23 19
-24 19 -38 0 -8 -10 -14 -17 -15 -14 -3 18 -8 37 -14 52 -4 10 -3 17 4 17 14
0 8 37 -9 53 -9 8 -11 8 -6 0 6 -12 -9 -26 -32 -29 -6 -1 -15 9 -18 22 -3 13
-10 24 -16 24 -5 0 -7 -4 -3 -9 3 -5 1 -12 -5 -16 -5 -3 -10 -12 -10 -18 0 -7
4 -6 10 3 11 17 19 11 25 -19 4 -22 -9 -29 -20 -11 -3 6 -11 10 -18 10 -21 0
11 -23 35 -25 13 -1 22 -8 20 -14 -1 -7 1 -10 6 -7 5 3 16 -8 26 -24 14 -25
15 -29 2 -24 -9 3 -14 10 -11 14 10 16 -14 21 -35 8 -21 -13 -27 -38 -9 -38 5
0 7 5 3 12 -4 7 -3 8 5 4 14 -9 5 -26 -15 -26 -21 0 -18 50 4 51 16 1 16 2 0
6 -9 2 -26 -1 -37 -6 -14 -8 -22 -8 -27 1 -5 7 -3 8 6 3 10 -6 12 -4 6 10 -5
14 -4 16 7 7 8 -7 17 -9 20 -5 11 11 8 23 -5 20 -8 -1 -13 7 -12 21 1 23 -5
27 -22 15 -5 -5 -1 0 9 10 11 9 14 17 8 17 -6 0 -10 10 -10 23 0 12 -2 33 -5
47 l-7 25 12 -25 c6 -14 12 -30 13 -37 4 -23 16 -26 16 -4 0 12 4 20 9 17 11
-7 6 38 -8 61 -9 14 -10 10 -5 -21 4 -28 2 -36 -6 -31 -6 4 -10 16 -7 26 3 11
0 19 -8 19 -7 0 -19 8 -26 18 -11 14 -11 15 1 5 20 -19 28 -16 29 10 1 45 5
55 20 52 9 -2 22 -4 29 -4z m271 -25 c7 -8 8 -17 3 -20 -6 -3 -12 3 -15 14 -6
24 -4 25 12 6z m60 -15 c8 -14 7 -22 -2 -29 -10 -9 -13 -4 -12 19 0 34 1 35
14 10z m3308 -68 c-2 -16 -4 -3 -4 27 0 30 2 43 4 28 2 -16 2 -40 0 -55z m502
-5 c10 -17 10 -20 0 -11 -10 10 -16 10 -27 1 -8 -7 -21 -13 -29 -14 -11 -2
-12 1 -2 12 6 8 18 14 26 14 8 0 11 5 8 10 -3 6 -2 10 2 10 5 0 14 -10 22 -22z
m-1262 -4 c-3 -3 -12 -4 -19 -1 -8 3 -5 6 6 6 11 1 17 -2 13 -5z m-117 -8 c0
-3 -4 -8 -10 -11 -5 -3 -10 -1 -10 4 0 6 5 11 10 11 6 0 10 -2 10 -4z m65 -26
c-5 -8 -11 -8 -17 -2 -6 6 -7 16 -3 22 5 8 11 8 17 2 6 -6 7 -16 3 -22z m92
24 c-3 -3 -12 -4 -19 -1 -8 3 -5 6 6 6 11 1 17 -2 13 -5z m-2996 -27 c-10 -9
-11 -8 -5 6 3 10 9 15 12 12 3 -3 0 -11 -7 -18z m4204 13 c-3 -5 0 -10 7 -10
8 0 6 -5 -5 -11 -15 -9 -16 -13 -5 -27 12 -15 11 -16 -5 -3 -15 12 -20 12 -26
2 -6 -10 -10 -9 -14 4 -4 9 -3 13 2 10 5 -3 12 -1 15 4 4 5 1 11 -6 14 -7 2
-3 2 10 0 12 -2 22 0 21 4 -2 13 1 23 7 23 3 0 2 -4 -1 -10z m-1215 -20 c0 -4
-6 -13 -14 -19 -17 -14 -31 2 -22 24 5 15 36 10 36 -5z m96 -5 c18 -13 18 -14
-4 -8 -12 3 -25 9 -28 14 -8 14 10 11 32 -6z m-28 -28 c2 -12 -3 -17 -17 -17
-12 0 -21 6 -21 13 0 31 32 34 38 4z m-2913 -4 c-1 -10 -8 -17 -15 -15 -8 2
-10 -3 -7 -13 4 -8 3 -15 -2 -15 -10 0 -36 29 -27 31 3 1 10 2 16 3 5 0 15 7
22 14 16 16 17 15 13 -5z m2975 -28 c0 -8 -7 -15 -15 -15 -8 0 -15 7 -15 15 0
8 7 15 15 15 8 0 15 -7 15 -15z m61 -2 c13 -16 12 -17 -3 -4 -17 13 -22 21
-14 21 2 0 10 -8 17 -17z m-6 -22 c7 -12 -12 -24 -25 -16 -11 7 -4 25 10 25 5
0 11 -4 15 -9z m52 -30 c3 -25 -15 -37 -30 -21 -9 9 -8 14 5 24 12 9 14 16 8
24 -7 9 -7 9 2 2 6 -5 13 -19 15 -29z m530 -23 c-3 -8 -6 -5 -6 6 -1 11 2 17
5 13 3 -3 4 -12 1 -19z m-489 -20 c-6 -18 -28 -21 -28 -4 0 9 7 16 16 16 9 0
14 -5 12 -12z m529 -30 c-3 -8 -6 -5 -6 6 -1 11 2 17 5 13 3 -3 4 -12 1 -19z
m-489 -9 c-5 -14 -21 -14 -26 0 -2 6 4 11 13 11 9 0 15 -5 13 -11z"/>
<path d="M2526 4193 c-6 -14 -5 -15 5 -6 7 7 10 15 7 18 -3 3 -9 -2 -12 -12z"/>
<path d="M2582 4185 c0 -16 2 -22 5 -12 2 9 2 23 0 30 -3 6 -5 -1 -5 -18z"/>
<path d="M2605 4160 c-3 -5 -1 -10 4 -10 6 0 11 5 11 10 0 6 -2 10 -4 10 -3 0
-8 -4 -11 -10z"/>
<path d="M2670 4120 c-6 -11 -8 -20 -6 -20 3 0 10 9 16 20 6 11 8 20 6 20 -3
0 -10 -9 -16 -20z"/>
<path d="M2720 3975 c-7 -8 -16 -13 -19 -10 -4 2 -8 -3 -8 -11 0 -11 6 -9 24
8 13 12 23 23 23 25 0 7 -8 2 -20 -12z"/>
<path d="M2430 3931 c0 -9 29 -37 31 -30 0 2 2 11 4 19 1 10 -5 16 -16 17 -11
1 -19 -2 -19 -6z"/>
<path d="M2485 3910 c-3 -5 -1 -10 4 -10 6 0 11 5 11 10 0 6 -2 10 -4 10 -3 0
-8 -4 -11 -10z"/>
<path d="M103 4105 c0 -9 4 -14 9 -13 5 2 10 8 10 13 0 5 -5 11 -10 13 -5 1
-9 -4 -9 -13z"/>
<path d="M172 3916 c7 -8 15 -12 17 -11 5 6 -10 25 -20 25 -5 0 -4 -6 3 -14z"/>
<path d="M210 3786 c7 -7 13 -7 20 0 6 6 3 10 -10 10 -13 0 -16 -4 -10 -10z"/>
<path d="M3406 3765 c-3 -9 -6 -22 -5 -28 0 -7 5 -1 10 12 5 13 8 26 5 28 -2
2 -6 -3 -10 -12z"/>
<path d="M3391 3574 c0 -11 3 -14 6 -6 3 7 2 16 -1 19 -3 4 -6 -2 -5 -13z"/>
<path d="M3742 3789 c-7 -12 -11 -24 -8 -27 3 -3 6 0 6 7 0 7 4 10 8 7 4 -2 9
4 9 15 2 24 1 24 -15 -2z"/>
<path d="M3773 3775 c0 -8 4 -12 9 -9 5 3 6 10 3 15 -9 13 -12 11 -12 -6z"/>
<path d="M3876 3768 c3 -4 9 -8 15 -8 5 0 9 4 9 8 0 5 -7 9 -15 9 -8 0 -12 -4
-9 -9z"/>
<path d="M3672 3737 c-8 -9 -8 -17 0 -27 8 -13 9 -12 5 1 -3 9 0 22 6 28 6 6
8 11 5 11 -3 0 -10 -6 -16 -13z"/>
<path d="M3880 3702 c0 -7 -7 -9 -17 -5 -15 5 -16 3 -5 -8 9 -10 15 -10 24 -1
6 6 9 15 5 19 -4 3 -7 1 -7 -5z"/>
<path d="M3708 3672 c-3 -11 0 -19 7 -19 7 0 10 8 7 19 -2 10 -6 18 -7 18 -1
0 -5 -8 -7 -18z"/>
<path d="M3649 3653 c-13 -16 -12 -17 4 -4 16 13 21 21 13 21 -2 0 -10 -8 -17
-17z"/>
<path d="M3754 3652 c3 -5 0 -13 -6 -15 -9 -4 -10 -6 -1 -6 17 -1 25 16 12 25
-7 4 -9 3 -5 -4z"/>
<path d="M2130 3790 c14 -10 27 -17 29 -14 6 5 -31 33 -44 33 -5 1 1 -8 15
-19z"/>
<path d="M2180 3795 c-7 -9 -8 -15 -2 -15 5 0 12 7 16 15 3 8 4 15 2 15 -2 0
-9 -7 -16 -15z"/>
<path d="M2991 3734 c0 -11 3 -14 6 -6 3 7 2 16 -1 19 -3 4 -6 -2 -5 -13z"/>
<path d="M2958 3733 c7 -3 16 -2 19 1 4 3 -2 6 -13 5 -11 0 -14 -3 -6 -6z"/>
<path d="M2948 3693 c6 -2 18 -2 25 0 6 3 1 5 -13 5 -14 0 -19 -2 -12 -5z"/>
<path d="M2908 3683 c7 -3 16 -2 19 1 4 3 -2 6 -13 5 -11 0 -14 -3 -6 -6z"/>
<path d="M3018 3653 c6 -2 18 -2 25 0 6 3 1 5 -13 5 -14 0 -19 -2 -12 -5z"/>
<path d="M2921 3634 c0 -11 3 -14 6 -6 3 7 2 16 -1 19 -3 4 -6 -2 -5 -13z"/>
<path d="M4753 3786 c-9 -11 -9 -15 0 -19 7 -3 14 3 14 14 2 22 2 22 -14 5z"/>
<path d="M4800 3779 c0 -5 -4 -7 -10 -4 -14 9 -12 -1 3 -13 10 -8 13 -6 14 9
1 10 0 19 -3 19 -2 0 -4 -5 -4 -11z"/>
<path d="M4720 3769 c0 -5 -6 -7 -12 -3 -7 4 -10 4 -6 0 3 -4 10 -8 15 -8 4 0
14 -4 21 -10 7 -6 14 -9 17 -6 2 2 -4 12 -15 21 -11 9 -20 12 -20 6z"/>
<path d="M2267 3759 c7 -7 15 -10 18 -7 3 3 -2 9 -12 12 -14 6 -15 5 -6 -5z"/>
<path d="M1426 3615 c25 -19 40 -19 20 0 -8 8 -20 15 -27 15 -7 0 -4 -6 7 -15z"/>
<path d="M1430 3505 c0 -1 14 -14 31 -31 17 -16 28 -22 24 -12 -4 9 -13 19
-21 22 -9 3 -13 10 -10 14 3 5 -1 9 -9 9 -8 0 -15 -1 -15 -2z"/>
<path d="M1254 3493 c4 -4 16 -8 28 -10 28 -4 18 6 -12 12 -12 2 -20 1 -16 -2z"/>
<path d="M1490 3436 c0 -2 7 -9 15 -16 13 -11 14 -10 9 4 -5 14 -24 23 -24 12z"/>
<path d="M3657 3491 c2 -2 -6 -10 -17 -18 -11 -8 -20 -20 -20 -26 1 -7 6 -6
13 4 17 23 30 20 43 -10 l11 -26 -1 26 c0 14 -8 32 -16 40 -8 8 -14 12 -13 10z"/>
<path d="M3600 3415 c-7 -9 -10 -18 -7 -21 3 -3 10 4 17 15 13 25 8 27 -10 6z"/>
<path d="M3525 3233 c-11 -27 -14 -93 -4 -93 5 0 10 10 10 23 1 22 4 38 8 47
8 16 8 40 1 40 -4 0 -11 -8 -15 -17z"/>
<path d="M3330 2945 c0 -2 6 -8 13 -14 10 -8 14 -7 14 2 0 8 -6 14 -14 14 -7
0 -13 -1 -13 -2z"/>
<path d="M1245 3000 c3 -4 21 -11 42 -15 20 -4 54 -15 75 -26 43 -22 51 -18
13 7 -28 18 -138 47 -130 34z"/>
<path d="M1370 2896 c0 -3 14 -12 30 -21 17 -9 30 -13 30 -11 0 3 -13 12 -30
21 -16 9 -30 13 -30 11z"/>
<path d="M1388 2857 c12 -7 19 -17 15 -22 -4 -4 -2 -5 6 0 12 7 11 10 -4 22
-11 7 -24 13 -29 13 -6 -1 -1 -6 12 -13z"/>
<path d="M3694 3088 c-10 -12 -14 -18 -7 -15 6 4 14 1 16 -5 4 -10 6 -10 6 -1
1 7 9 10 19 7 16 -5 16 -5 -1 6 -9 6 -15 15 -12 21 11 17 -2 9 -21 -13z"/>
<path d="M3776 3091 c-4 -5 -2 -12 3 -15 5 -4 12 -2 15 3 4 5 2 12 -3 15 -5 4
-12 2 -15 -3z"/>
<path d="M3725 2893 c-28 -25 -28 -25 -5 -18 14 4 27 11 30 15 3 4 12 9 19 12
13 4 13 5 0 10 -8 3 -28 -6 -44 -19z"/>
<path d="M3720 2840 c-12 -7 -10 -9 7 -7 12 0 19 5 17 9 -6 10 -6 10 -24 -2z"/>
<path d="M3808 2798 c2 -10 6 -18 7 -18 1 0 5 8 7 18 3 11 0 19 -7 19 -7 0
-10 -8 -7 -19z"/>
<path d="M3536 2605 c-9 -14 -12 -25 -6 -25 5 0 10 4 10 9 0 5 7 17 16 25 8 9
11 16 6 16 -5 0 -17 -11 -26 -25z"/>
<path d="M3285 2759 c-4 -6 -4 -13 -1 -16 3 -4 6 -1 6 6 0 7 5 9 12 5 7 -4 8
-3 4 4 -9 15 -13 15 -21 1z"/>
<path d="M3129 2541 c5 -25 6 -25 9 -3 2 12 8 20 13 17 5 -4 9 -2 9 4 0 5 -8
9 -18 8 -14 -1 -17 -7 -13 -26z"/>
<path d="M3151 2524 c0 -11 3 -14 6 -6 3 7 2 16 -1 19 -3 4 -6 -2 -5 -13z"/>
<path d="M3142 2480 c0 -14 2 -19 5 -12 2 6 2 18 0 25 -3 6 -5 1 -5 -13z"/>
<path d="M3123 2450 c0 -14 -3 -34 -7 -45 -4 -11 0 -8 9 8 11 19 13 33 6 44
-8 14 -9 13 -8 -7z"/>
<path d="M3080 2421 c0 -7 -4 -9 -10 -6 -6 4 -7 -1 -3 -11 6 -15 7 -15 15 1 6
9 7 19 4 22 -3 4 -6 1 -6 -6z"/>
<path d="M3035 2342 c-11 -20 -26 -37 -34 -37 -8 0 -16 -7 -18 -15 -4 -12 -3
-13 5 -1 8 11 11 9 17 -8 6 -21 8 -22 26 -5 20 18 27 40 9 29 -16 -10 -12 5
11 41 11 19 17 34 12 34 -4 0 -17 -17 -28 -38z m-5 -52 c0 -5 -5 -10 -11 -10
-5 0 -7 5 -4 10 3 6 8 10 11 10 2 0 4 -4 4 -10z"/>
<path d="M3070 2345 c-7 -9 -8 -15 -2 -15 5 0 12 7 16 15 3 8 4 15 2 15 -2 0
-9 -7 -16 -15z"/>
<path d="M4082 2520 c2 -9 -3 -14 -12 -12 -8 2 -11 0 -7 -4 13 -14 35 -12 33
2 -1 7 -6 17 -10 21 -4 4 -6 1 -4 -7z"/>
<path d="M4070 2221 c0 -7 -5 -9 -12 -5 -7 5 -8 3 -3 -5 5 -9 10 -10 18 -2 6
6 8 14 4 18 -4 3 -7 1 -7 -6z"/>
<path d="M3640 2169 c-19 -17 -56 -44 -82 -61 -27 -17 -46 -33 -44 -36 3 -2
24 10 48 26 45 31 127 101 118 101 -3 0 -21 -13 -40 -30z"/>
<path d="M3682 2146 c-46 -33 -53 -43 -14 -20 19 10 38 25 44 32 15 17 8 14
-30 -12z"/>
<path d="M3575 2015 c-25 -12 -26 -14 -5 -9 28 7 60 23 45 23 -5 0 -23 -6 -40
-14z"/>
<path d="M3720 2020 c-8 -5 -10 -10 -5 -10 6 0 17 5 25 10 8 5 11 10 5 10 -5
0 -17 -5 -25 -10z"/>
<path d="M3650 1990 c-8 -5 -10 -10 -5 -10 6 0 17 5 25 10 8 5 11 10 5 10 -5
0 -17 -5 -25 -10z"/>
<path d="M3671 1979 c-13 -5 -33 -7 -45 -4 -17 5 -18 4 -6 -5 12 -9 7 -10 -20
-5 -27 5 -32 4 -20 -5 12 -9 7 -10 -20 -5 -27 5 -32 4 -20 -5 12 -9 7 -10 -20
-5 -28 6 -33 5 -23 -6 16 -16 149 -16 183 0 23 11 23 11 -10 6 -58 -9 -116
-15 -95 -9 59 16 115 37 120 45 7 11 7 11 -24 -2z"/>
<path d="M3720 1960 c-18 -12 -2 -12 25 0 13 6 15 9 5 9 -8 0 -22 -4 -30 -9z"/>
<path d="M3343 2165 c0 -8 4 -12 9 -9 5 3 6 10 3 15 -9 13 -12 11 -12 -6z"/>
<path d="M3305 2132 c-6 -5 -31 -20 -56 -35 -33 -19 -46 -22 -46 -12 0 8 4 12
8 9 4 -2 10 0 13 5 8 13 -24 7 -32 -6 -4 -5 -17 -15 -30 -22 -21 -11 -22 -31
-1 -31 6 0 8 4 4 9 -3 6 3 9 13 8 18 -1 127 57 137 74 8 11 2 12 -10 1z"/>
<path d="M3324 2114 c-18 -14 -18 -15 4 -4 12 6 22 13 22 15 0 8 -5 6 -26 -11z"/>
<path d="M3096 2046 c-31 -26 -21 -45 14 -26 11 6 31 8 43 5 21 -7 21 -7 2 8
-10 8 -26 12 -35 9 -13 -5 -13 -3 -1 11 18 23 12 21 -23 -7z m9 -16 c-3 -5
-12 -10 -18 -10 -7 0 -6 4 3 10 19 12 23 12 15 0z"/>
<path d="M2915 2311 c-3 -5 -1 -12 5 -16 5 -3 10 1 10 9 0 18 -6 21 -15 7z"/>
<path d="M2790 2221 c0 -6 4 -13 10 -16 6 -3 7 1 4 9 -7 18 -14 21 -14 7z"/>
<path d="M3143 1913 c15 -4 16 -7 5 -21 -9 -12 -6 -12 10 2 12 11 22 20 22 20
0 1 -12 2 -27 3 -16 0 -20 -1 -10 -4z"/>
<path d="M3178 1888 c-13 -11 -7 -22 50 -78 65 -65 65 -65 33 -18 -17 26 -41
53 -53 59 -17 9 -18 13 -7 20 11 7 11 9 1 9 -7 0 -10 5 -7 10 8 14 2 13 -17
-2z"/>
<path d="M3035 1870 c21 -24 26 -25 19 -6 -3 8 -13 17 -22 21 -13 5 -13 2 3
-15z"/>
<path d="M3094 1858 c20 -18 53 -51 72 -73 l35 -40 -31 47 c-29 44 -86 98
-105 98 -5 0 8 -15 29 -32z"/>
<path d="M3066 1842 c-3 -5 1 -9 9 -9 8 0 12 4 9 9 -3 4 -7 8 -9 8 -2 0 -6 -4
-9 -8z"/>
<path d="M3080 1785 c0 -5 5 -17 10 -25 5 -8 10 -10 10 -5 0 6 -5 17 -10 25
-5 8 -10 11 -10 5z"/>
<path d="M2712 1873 c-7 -3 -17 -14 -23 -25 -7 -13 -7 -18 -1 -14 6 3 12 1 15
-6 2 -7 3 -5 2 4 -2 10 2 21 7 25 7 3 8 1 4 -5 -4 -7 -3 -12 3 -12 6 0 7 -7 4
-17 -4 -11 -3 -14 5 -9 8 4 12 0 13 -11 0 -16 1 -16 8 2 7 17 9 16 15 -9 4
-16 9 -26 12 -23 11 10 -25 79 -37 71 -9 -5 -10 -2 -6 9 7 18 -2 27 -21 20z"/>
<path d="M2752 1755 c0 -16 2 -22 5 -12 2 9 2 23 0 30 -3 6 -5 -1 -5 -18z"/>
<path d="M2785 1642 c0 -64 1 -105 3 -89 2 15 7 25 11 23 9 -6 4 134 -6 162
-5 12 -8 -29 -8 -96z"/>
<path d="M2761 1574 c0 -11 3 -14 6 -6 3 7 2 16 -1 19 -3 4 -6 -2 -5 -13z"/>
<path d="M2802 1458 c2 -63 9 -102 17 -110 11 -11 12 -8 8 17 -4 17 -9 64 -13
105 -9 109 -17 101 -12 -12z"/>
<path d="M2886 1767 c3 -10 9 -15 12 -12 3 3 0 11 -7 18 -10 9 -11 8 -5 -6z"/>
<path d="M2931 1759 c-1 -3 10 -32 24 -65 13 -32 24 -52 24 -44 0 15 -47 120
-48 109z"/>
<path d="M3000 1735 c0 -5 5 -17 10 -25 5 -8 10 -10 10 -5 0 6 -5 17 -10 25
-5 8 -10 11 -10 5z"/>
<path d="M3030 1611 c0 -6 4 -13 10 -16 6 -3 7 1 4 9 -7 18 -14 21 -14 7z"/>
<path d="M2426 1668 c3 -5 10 -6 15 -3 13 9 11 12 -6 12 -8 0 -12 -4 -9 -9z"/>
<path d="M2379 1586 c6 -7 7 -16 3 -20 -4 -4 0 -6 8 -4 16 3 21 -21 7 -39 -6
-9 -6 -13 2 -13 6 0 11 6 11 13 0 7 7 4 15 -7 8 -11 15 -15 15 -9 0 7 -4 14
-9 18 -6 3 -8 14 -6 25 2 12 0 18 -5 15 -5 -3 -11 -1 -15 5 -3 5 -1 10 6 10
19 0 5 10 -21 15 -17 3 -19 1 -11 -9z"/>
<path d="M846 1205 c-9 -26 -7 -32 5 -12 6 10 9 21 6 23 -2 3 -7 -2 -11 -11z"/>
<path d="M742 1015 c4 -29 13 -64 18 -77 10 -22 10 -22 5 5 -3 15 -8 47 -12
72 -3 25 -9 48 -13 50 -4 2 -3 -20 2 -50z"/>
<path d="M806 992 c3 -56 42 -227 50 -219 4 3 -32 202 -45 252 -6 21 -7 11 -5
-33z"/>
<path d="M1310 1306 c0 -8 10 -18 23 -22 12 -4 25 -12 29 -18 4 -6 6 -1 6 10
-2 14 -7 20 -19 17 -9 -3 -20 0 -23 6 -5 7 0 9 11 5 15 -5 16 -4 3 5 -21 15
-30 14 -30 -3z"/>
<path d="M1298 1238 c-3 -7 -2 -22 3 -33 7 -18 8 -18 8 -2 1 12 5 16 14 11 7
-5 7 -1 -3 12 -8 10 -15 20 -16 22 -1 2 -4 -3 -6 -10z"/>
<path d="M1276 1207 c3 -10 9 -15 12 -12 3 3 0 11 -7 18 -10 9 -11 8 -5 -6z"/>
<path d="M1260 1171 c0 -6 4 -13 10 -16 6 -3 7 1 4 9 -7 18 -14 21 -14 7z"/>
<path d="M1085 1153 c-5 -10 -9 -21 -9 -25 -1 -4 -10 -14 -21 -22 -11 -9 -15
-16 -9 -16 19 0 64 54 55 68 -6 11 -10 10 -16 -5z"/>
<path d="M1304 1161 c4 -5 0 -12 -6 -14 -10 -4 -10 -6 0 -6 8 -1 10 -6 6 -13
-5 -9 -2 -8 9 1 13 10 15 17 6 27 -13 16 -23 19 -15 5z"/>
<path d="M1046 1041 c-14 -22 -26 -44 -26 -48 0 -5 10 8 22 27 12 19 27 38 32
42 6 4 8 10 4 13 -4 4 -18 -11 -32 -34z"/>
<path d="M995 950 c-9 -18 -13 -40 -9 -55 4 -14 8 -24 10 -22 8 7 34 77 29 77
-3 0 -10 -12 -16 -27 -6 -16 -13 -23 -16 -16 -2 6 3 25 12 42 8 17 13 31 11
31 -3 0 -12 -13 -21 -30z"/>
<path d="M510 976 c0 -2 7 -6 15 -10 8 -3 15 -1 15 4 0 6 -7 10 -15 10 -8 0
-15 -2 -15 -4z"/>
<path d="M1176 968 c3 -4 10 -6 15 -3 5 4 9 -1 9 -9 0 -9 -7 -13 -19 -11 -15
3 -18 0 -14 -13 4 -10 8 -12 11 -4 2 7 8 9 14 6 5 -3 12 3 15 15 3 12 10 18
17 14 6 -3 7 -2 3 3 -10 11 -58 14 -51 2z"/>
<path d="M1240 971 c0 -5 7 -12 16 -15 14 -5 15 -4 4 9 -14 17 -20 19 -20 6z"/>
<path d="M1052 839 c-18 -16 -30 -29 -27 -29 4 0 -1 -10 -9 -22 -9 -12 -16
-32 -16 -43 0 -17 2 -17 18 8 10 15 22 24 26 20 4 -5 7 -3 5 2 -4 16 12 65 22
66 5 1 18 2 28 3 11 0 22 4 26 8 4 3 -1 5 -12 4 -10 -2 -20 0 -23 5 -3 4 -20
-6 -38 -22z"/>
<path d="M1143 853 c1 -17 4 -19 14 -11 10 8 13 7 13 -2 0 -8 3 -11 6 -7 3 3
1 14 -5 24 -8 14 -10 14 -11 3 0 -13 -1 -13 -10 0 -7 12 -9 10 -7 -7z"/>
<path d="M1050 720 c0 -5 5 -10 11 -10 5 0 7 5 4 10 -3 6 -8 10 -11 10 -2 0
-4 -4 -4 -10z"/>
<path d="M559 828 c-4 -19 -9 -51 -6 -47 1 2 8 11 15 21 9 11 10 18 2 23 -5 3
-10 5 -11 3z"/>
<path d="M1185 801 c-3 -5 -1 -12 5 -16 5 -3 10 1 10 9 0 18 -6 21 -15 7z"/>
<path d="M575 660 c3 -5 8 -10 11 -10 2 0 4 5 4 10 0 6 -5 10 -11 10 -5 0 -7
-4 -4 -10z"/>
<path d="M629 633 c-7 -10 -9 -15 -5 -11 5 4 16 2 25 -5 14 -10 14 -10 4 4 -7
9 -10 19 -6 22 3 4 4 7 1 7 -3 0 -12 -8 -19 -17z"/>
<path d="M754 402 c4 -3 14 -7 22 -8 9 -1 13 0 10 4 -4 3 -14 7 -22 8 -9 1
-13 0 -10 -4z"/>
<path d="M808 368 c5 -5 16 -8 23 -6 8 3 3 7 -10 11 -17 4 -21 3 -13 -5z"/>
<path d="M4446 608 c3 -5 10 -6 15 -3 13 9 11 12 -6 12 -8 0 -12 -4 -9 -9z"/>
<path d="M4304 505 c-4 -8 -10 -12 -15 -9 -5 3 -6 -2 -3 -11 7 -18 7 -18 23
13 6 12 9 22 6 22 -3 0 -8 -7 -11 -15z"/>
<path d="M4654 549 c-14 -16 -31 -69 -16 -55 2 3 15 1 28 -4 13 -5 24 -6 24
-1 0 5 -9 11 -20 14 -11 3 -20 13 -19 24 0 16 1 16 7 1 6 -15 9 -14 19 7 14
32 1 40 -23 14z"/>
<path d="M576 433 c-6 -14 -5 -15 5 -6 7 7 10 15 7 18 -3 3 -9 -2 -12 -12z"/>
<path d="M609 408 c11 -15 11 -19 -3 -24 -13 -5 -14 -10 -4 -27 6 -12 11 -24
11 -27 0 -3 2 -13 5 -22 5 -19 32 -25 32 -7 0 5 -5 7 -12 3 -6 -4 -8 -3 -4 4
3 6 -2 15 -11 21 -10 6 -13 11 -6 11 16 0 10 57 -7 73 -12 10 -12 9 -1 -5z"/>
<path d="M635 341 c-7 -12 12 -24 25 -16 11 7 4 25 -10 25 -5 0 -11 -4 -15 -9z"/>
<path d="M702 248 c4 -8 1 -21 -5 -27 -8 -8 -7 -11 4 -11 12 0 12 -2 -1 -10
-8 -5 -10 -10 -4 -10 5 0 19 7 30 16 16 13 16 15 2 10 -18 -5 -26 9 -9 16 5 2
2 10 -7 18 -14 13 -15 12 -10 -2z"/>
<path d="M4141 660 c15 -45 24 -54 15 -15 -4 17 -12 34 -17 40 -5 5 -4 -6 2
-25z"/>
<path d="M4104 655 c11 -40 25 -113 46 -240 12 -71 33 -167 46 -213 27 -93 78
-202 95 -202 6 0 9 6 6 13 -77 179 -117 313 -117 392 0 31 -3 36 -11 25 -8
-12 -9 -10 -7 10 1 14 -2 31 -6 39 -6 10 -5 12 2 7 8 -5 12 2 11 21 0 25 -1
26 -9 8 -6 -14 -9 -15 -10 -5 -5 50 -30 142 -43 155 -6 6 -7 3 -3 -10z"/>
<path d="M4150 605 c0 -5 5 -17 10 -25 5 -8 10 -10 10 -5 0 6 -5 17 -10 25 -5
8 -10 11 -10 5z"/>
<path d="M3828 433 c7 -3 16 -2 19 1 4 3 -2 6 -13 5 -11 0 -14 -3 -6 -6z"/>
<path d="M4060 400 c11 -23 18 -46 14 -53 -5 -9 -4 -9 5 -1 10 9 8 21 -8 53
-12 22 -24 41 -26 41 -3 0 4 -18 15 -40z"/>
<path d="M4571 354 c0 -11 3 -14 6 -6 3 7 2 16 -1 19 -3 4 -6 -2 -5 -13z"/>
<path d="M3948 297 c12 -7 19 -17 15 -22 -4 -4 -2 -5 6 0 12 7 11 10 -4 22
-11 7 -24 13 -29 13 -6 -1 -1 -6 12 -13z"/>
<path d="M4505 271 c-3 -5 -2 -12 3 -15 5 -3 9 1 9 9 0 17 -3 19 -12 6z"/>
<path d="M4567 234 c-3 -3 -3 -13 0 -22 4 -8 2 -13 -3 -9 -6 3 -10 -4 -11 -16
0 -12 1 -16 4 -9 3 6 8 10 12 8 4 -3 7 8 7 25 0 31 0 32 -9 23z"/>
<path d="M4445 200 c-3 -5 -1 -10 4 -10 6 0 11 5 11 10 0 6 -2 10 -4 10 -3 0
-8 -4 -11 -10z"/>
<path d="M4436 158 c-14 -48 -18 -126 -7 -144 10 -16 11 -13 8 17 -3 20 -1 60
4 90 9 56 6 75 -5 37z"/>
<path d="M4400 120 c-2 -47 -3 -51 -10 -25 -8 30 -8 30 -9 -8 0 -21 3 -36 7
-33 4 3 7 -8 6 -25 -1 -17 3 -29 10 -29 8 0 11 21 8 73 -4 96 -9 115 -12 47z"/>
<path d="M4455 103 c-7 -42 -8 -48 -6 -81 1 -18 6 -23 23 -20 12 2 23 9 26 17
3 9 0 11 -9 6 -11 -6 -12 -5 -1 6 6 7 12 18 12 23 0 6 -5 4 -10 -4 -7 -11 -9
-1 -7 34 3 61 -19 75 -28 19z m22 5 c-3 -8 -6 -5 -6 6 -1 11 2 17 5 13 3 -3 4
-12 1 -19z m-4 -38 c-3 -11 -7 -20 -9 -20 -2 0 -4 9 -4 20 0 11 4 20 9 20 5 0
7 -9 4 -20z"/>
<path d="M4597 99 c7 -7 15 -10 18 -7 3 3 -2 9 -12 12 -14 6 -15 5 -6 -5z"/>
</g>
</svg>
